<svg width="21" height="87" viewBox="0 0 21 87" fill="none" xmlns="http://www.w3.org/2000/svg">
<g filter="url(#filter0_d_81_947)">
<mask id="path-1-outside-1_81_947" maskUnits="userSpaceOnUse" x="-1" y="-1" width="23" height="87" fill="black">
<rect fill="white" x="-1" y="-1" width="23" height="87"/>
<path d="M12.8242 57.75H8.17578C8.17578 47.5417 6.67188 37.0599 3.66406 26.3047C1.47656 18.6484 0.382812 13.362 0.382812 10.4453C0.747396 4.42969 4.16536 1.14844 10.6367 0.601562C17.1081 0.692708 20.4349 3.92839 20.6172 10.3086C20.6172 13.3164 19.6602 18.1016 17.7461 24.6641C14.4648 36.3307 12.8242 47.3594 12.8242 57.75ZM20.3438 75.1133C20.3438 76.7539 19.9792 78.3034 19.25 79.7617C17.4271 83.043 14.556 84.6836 10.6367 84.6836C9.08724 84.6836 7.62891 84.319 6.26172 83.5898C2.79818 81.8581 1.06641 79.0326 1.06641 75.1133C1.06641 73.5638 1.43099 72.0599 2.16016 70.6016C3.98307 67.138 6.80859 65.4062 10.6367 65.4062C12.1862 65.4062 13.6901 65.7708 15.1484 66.5C18.612 68.4141 20.3438 71.2852 20.3438 75.1133Z"/>
</mask>
<path d="M12.8242 57.75H8.17578C8.17578 47.5417 6.67188 37.0599 3.66406 26.3047C1.47656 18.6484 0.382812 13.362 0.382812 10.4453C0.747396 4.42969 4.16536 1.14844 10.6367 0.601562C17.1081 0.692708 20.4349 3.92839 20.6172 10.3086C20.6172 13.3164 19.6602 18.1016 17.7461 24.6641C14.4648 36.3307 12.8242 47.3594 12.8242 57.75ZM20.3438 75.1133C20.3438 76.7539 19.9792 78.3034 19.25 79.7617C17.4271 83.043 14.556 84.6836 10.6367 84.6836C9.08724 84.6836 7.62891 84.319 6.26172 83.5898C2.79818 81.8581 1.06641 79.0326 1.06641 75.1133C1.06641 73.5638 1.43099 72.0599 2.16016 70.6016C3.98307 67.138 6.80859 65.4062 10.6367 65.4062C12.1862 65.4062 13.6901 65.7708 15.1484 66.5C18.612 68.4141 20.3438 71.2852 20.3438 75.1133Z" fill="#FF2103"/>
<path d="M12.8242 57.75V58.75H13.8242V57.75H12.8242ZM8.17578 57.75H7.17578V58.75H8.17578V57.75ZM3.66406 26.3047L4.62713 26.0354L4.62559 26.03L3.66406 26.3047ZM0.382812 10.4453L-0.615356 10.3848L-0.617188 10.415V10.4453H0.382812ZM10.6367 0.601562L10.6508 -0.398338L10.6016 -0.399032L10.5525 -0.394886L10.6367 0.601562ZM20.6172 10.3086H21.6172V10.2943L21.6168 10.28L20.6172 10.3086ZM17.7461 24.6641L16.786 24.3841L16.7834 24.3933L17.7461 24.6641ZM19.25 79.7617L20.1242 80.2474L20.1347 80.2284L20.1444 80.2089L19.25 79.7617ZM6.26172 83.5898L6.73231 82.7075L6.7207 82.7013L6.70893 82.6954L6.26172 83.5898ZM2.16016 70.6016L1.27524 70.1358L1.27039 70.145L1.26573 70.1544L2.16016 70.6016ZM15.1484 66.5L15.6321 65.6248L15.6141 65.6148L15.5957 65.6056L15.1484 66.5ZM12.8242 56.75H8.17578V58.75H12.8242V56.75ZM9.17578 57.75C9.17578 47.4425 7.65716 36.8701 4.62711 26.0354L2.70101 26.574C5.68659 37.2497 7.17578 47.6408 7.17578 57.75H9.17578ZM4.62559 26.03C2.43408 18.3597 1.38281 13.202 1.38281 10.4453H-0.617188C-0.617188 13.522 0.519043 18.9372 2.70254 26.5794L4.62559 26.03ZM1.38098 10.5058C1.55236 7.67809 2.42997 5.61704 3.91226 4.19404C5.40396 2.76201 7.62953 1.85926 10.7209 1.59801L10.5525 -0.394886C7.17255 -0.109255 4.45346 0.90205 2.52719 2.75127C0.591514 4.60952 -0.42215 7.19691 -0.615356 10.3848L1.38098 10.5058ZM10.6226 1.60146C13.7044 1.64487 15.8697 2.43394 17.2881 3.81354C18.7043 5.1909 19.531 7.30781 19.6176 10.3372L21.6168 10.28C21.521 6.92917 20.5932 4.23814 18.6826 2.37982C16.7742 0.523742 14.0404 -0.350598 10.6508 -0.398338L10.6226 1.60146ZM19.6172 10.3086C19.6172 13.1615 18.6986 17.8269 16.7861 24.3841L18.7061 24.9441C20.6217 18.3763 21.6172 13.4714 21.6172 10.3086H19.6172ZM16.7834 24.3933C13.4814 36.1338 11.8242 47.2541 11.8242 57.75H13.8242C13.8242 47.4646 15.4483 36.5276 18.7087 24.9348L16.7834 24.3933ZM19.3438 75.1133C19.3438 76.5997 19.0149 77.9959 18.3556 79.3145L20.1444 80.2089C20.9435 78.6108 21.3438 76.9081 21.3438 75.1133H19.3438ZM18.3758 79.2761C17.5408 80.7791 16.4898 81.8669 15.2334 82.5849C13.9747 83.3041 12.4547 83.6836 10.6367 83.6836V85.6836C12.738 85.6836 14.6132 85.2428 16.2256 84.3214C17.8403 83.3987 19.1363 82.0256 20.1242 80.2474L18.3758 79.2761ZM10.6367 83.6836C9.25138 83.6836 7.95466 83.3594 6.73231 82.7075L5.79113 84.4722C7.30315 85.2786 8.9231 85.6836 10.6367 85.6836V83.6836ZM6.70893 82.6954C5.11576 81.8988 3.97054 80.8774 3.21784 79.6493C2.4647 78.4205 2.06641 76.9225 2.06641 75.1133H0.0664062C0.0664062 77.2233 0.533995 79.0977 1.51263 80.6944C2.4917 82.2919 3.94413 83.5491 5.8145 84.4843L6.70893 82.6954ZM2.06641 75.1133C2.06641 73.7272 2.39111 72.3757 3.05458 71.0488L1.26573 70.1544C0.470865 71.7441 0.0664062 73.4004 0.0664062 75.1133H2.06641ZM3.04507 71.0673C3.88804 69.4657 4.93545 68.3138 6.16905 67.5577C7.40143 66.8023 8.87797 66.4062 10.6367 66.4062V64.4062C8.56734 64.4062 6.71706 64.876 5.12392 65.8525C3.532 66.8282 2.25519 68.2739 1.27524 70.1358L3.04507 71.0673ZM10.6367 66.4062C12.0228 66.4062 13.3743 66.731 14.7012 67.3944L15.5957 65.6056C14.0059 64.8107 12.3496 64.4062 10.6367 64.4062V66.4062ZM14.6648 67.3752C16.2708 68.2628 17.4285 69.3451 18.1886 70.6054C18.9478 71.8639 19.3438 73.3549 19.3438 75.1133H21.3438C21.3438 73.0435 20.8738 71.1849 19.9012 69.5724C18.9296 67.9616 17.4896 66.6512 15.6321 65.6248L14.6648 67.3752Z" fill="#590504" mask="url(#path-1-outside-1_81_947)"/>
</g>
<defs>
<filter id="filter0_d_81_947" x="0.282812" y="0.601562" width="20.4344" height="86.182" filterUnits="userSpaceOnUse" color-interpolation-filters="sRGB">
<feFlood flood-opacity="0" result="BackgroundImageFix"/>
<feColorMatrix in="SourceAlpha" type="matrix" values="0 0 0 0 0 0 0 0 0 0 0 0 0 0 0 0 0 0 127 0" result="hardAlpha"/>
<feOffset dy="2"/>
<feGaussianBlur stdDeviation="0.05"/>
<feComposite in2="hardAlpha" operator="out"/>
<feColorMatrix type="matrix" values="0 0 0 0 0.355512 0 0 0 0 0.0802371 0 0 0 0 0.0251821 0 0 0 0.54 0"/>
<feBlend mode="normal" in2="BackgroundImageFix" result="effect1_dropShadow_81_947"/>
<feBlend mode="normal" in="SourceGraphic" in2="effect1_dropShadow_81_947" result="shape"/>
</filter>
</defs>
</svg>
