<svg width="15" height="57" viewBox="0 0 15 57" fill="none" xmlns="http://www.w3.org/2000/svg">
<g filter="url(#filter0_d_81_887)">
<mask id="path-1-outside-1_81_887" maskUnits="userSpaceOnUse" x="-1" y="-1" width="17" height="57" fill="black">
<rect fill="white" x="-1" y="-1" width="17" height="57"/>
<path d="M8.99414 37.125H6.00586C6.00586 30.5625 5.03906 23.8242 3.10547 16.9102C1.69922 11.9883 0.996094 8.58984 0.996094 6.71484C1.23047 2.84766 3.42773 0.738281 7.58789 0.386719C11.748 0.445312 13.8867 2.52539 14.0039 6.62695C14.0039 8.56055 13.3887 11.6367 12.1582 15.8555C10.0488 23.3555 8.99414 30.4453 8.99414 37.125ZM13.8281 48.2871C13.8281 49.3418 13.5938 50.3379 13.125 51.2754C11.9531 53.3848 10.1074 54.4395 7.58789 54.4395C6.5918 54.4395 5.6543 54.2051 4.77539 53.7363C2.54883 52.623 1.43555 50.8066 1.43555 48.2871C1.43555 47.291 1.66992 46.3242 2.13867 45.3867C3.31055 43.1602 5.12695 42.0469 7.58789 42.0469C8.58398 42.0469 9.55078 42.2812 10.4883 42.75C12.7148 43.9805 13.8281 45.8262 13.8281 48.2871Z"/>
</mask>
<path d="M8.99414 37.125H6.00586C6.00586 30.5625 5.03906 23.8242 3.10547 16.9102C1.69922 11.9883 0.996094 8.58984 0.996094 6.71484C1.23047 2.84766 3.42773 0.738281 7.58789 0.386719C11.748 0.445312 13.8867 2.52539 14.0039 6.62695C14.0039 8.56055 13.3887 11.6367 12.1582 15.8555C10.0488 23.3555 8.99414 30.4453 8.99414 37.125ZM13.8281 48.2871C13.8281 49.3418 13.5938 50.3379 13.125 51.2754C11.9531 53.3848 10.1074 54.4395 7.58789 54.4395C6.5918 54.4395 5.6543 54.2051 4.77539 53.7363C2.54883 52.623 1.43555 50.8066 1.43555 48.2871C1.43555 47.291 1.66992 46.3242 2.13867 45.3867C3.31055 43.1602 5.12695 42.0469 7.58789 42.0469C8.58398 42.0469 9.55078 42.2812 10.4883 42.75C12.7148 43.9805 13.8281 45.8262 13.8281 48.2871Z" fill="#FF2103"/>
<path d="M8.99414 37.125V38.125H9.99414V37.125H8.99414ZM6.00586 37.125H5.00586V38.125H6.00586V37.125ZM3.10547 16.9102L4.06853 16.6408L4.06699 16.6354L3.10547 16.9102ZM0.996094 6.71484L-0.00207475 6.65435L-0.00390625 6.68457V6.71484H0.996094ZM7.58789 0.386719L7.60197 -0.613182L7.55274 -0.613875L7.50368 -0.60973L7.58789 0.386719ZM14.0039 6.62695H15.0039V6.61267L15.0035 6.59839L14.0039 6.62695ZM12.1582 15.8555L11.1982 15.5755L11.1956 15.5847L12.1582 15.8555ZM13.125 51.2754L13.9992 51.761L14.0097 51.742L14.0194 51.7226L13.125 51.2754ZM4.77539 53.7363L5.24598 52.854L5.23437 52.8478L5.2226 52.8419L4.77539 53.7363ZM2.13867 45.3867L1.25375 44.921L1.2489 44.9302L1.24424 44.9395L2.13867 45.3867ZM10.4883 42.75L10.972 41.8748L10.9539 41.8648L10.9355 41.8556L10.4883 42.75ZM8.99414 36.125H6.00586V38.125H8.99414V36.125ZM7.00586 37.125C7.00586 30.4634 6.02435 23.6344 4.06852 16.6408L2.14242 17.1795C4.05378 24.014 5.00586 30.6616 5.00586 37.125H7.00586ZM4.06699 16.6354C2.65674 11.6995 1.99609 8.42987 1.99609 6.71484H-0.00390625C-0.00390625 8.74982 0.741699 12.277 2.14394 17.1849L4.06699 16.6354ZM1.99426 6.77534C2.10054 5.02184 2.64042 3.79087 3.51236 2.95381C4.3937 2.10772 5.7363 1.54676 7.6721 1.38317L7.50368 -0.60973C5.27932 -0.421755 3.44321 0.247753 2.12729 1.51103C0.801963 2.78335 0.126027 4.54066 -0.00207475 6.65435L1.99426 6.77534ZM7.57381 1.38662C9.49998 1.41375 10.7904 1.90578 11.6148 2.70758C12.4369 3.50714 12.9503 4.76549 13.0043 6.65551L15.0035 6.59839C14.9403 4.38685 14.3258 2.55438 13.0092 1.27386C11.6949 -0.00441514 9.83596 -0.581718 7.60197 -0.613182L7.57381 1.38662ZM13.0039 6.62695C13.0039 8.40559 12.4271 11.362 11.1982 15.5755L13.1182 16.1355C14.3502 11.9114 15.0039 8.7155 15.0039 6.62695H13.0039ZM11.1956 15.5847C9.0654 23.1586 7.99414 30.3401 7.99414 37.125H9.99414C9.99414 30.5506 11.0323 23.5524 13.1209 16.1262L11.1956 15.5847ZM12.8281 48.2871C12.8281 49.1876 12.6294 50.0304 12.2306 50.8282L14.0194 51.7226C14.5581 50.6454 14.8281 49.496 14.8281 48.2871H12.8281ZM12.2508 50.7897C11.7414 51.7068 11.1094 52.3552 10.3657 52.7802C9.61974 53.2064 8.70599 53.4395 7.58789 53.4395V55.4395C8.98932 55.4395 10.2582 55.1451 11.358 54.5167C12.46 53.887 13.3368 52.9533 13.9992 51.761L12.2508 50.7897ZM7.58789 53.4395C6.75594 53.4395 5.98005 53.2455 5.24598 52.854L4.3048 54.6187C5.32854 55.1647 6.42766 55.4395 7.58789 55.4395V53.4395ZM5.2226 52.8419C4.24792 52.3546 3.56656 51.74 3.12311 51.0165C2.67922 50.2923 2.43555 49.3965 2.43555 48.2871H0.435547C0.435547 49.6973 0.748513 50.9695 1.41791 52.0616C2.08773 53.1545 3.0763 54.0048 4.32818 54.6308L5.2226 52.8419ZM2.43555 48.2871C2.43555 47.4544 2.63005 46.64 3.0331 45.8339L1.24424 44.9395C0.709797 46.0084 0.435547 47.1276 0.435547 48.2871H2.43555ZM3.02359 45.8525C3.54104 44.8693 4.1734 44.1813 4.90244 43.7344C5.63027 43.2883 6.51273 43.0469 7.58789 43.0469V41.0469C6.20211 41.0469 4.9459 41.362 3.85732 42.0292C2.76996 42.6957 1.90818 43.6776 1.25375 44.921L3.02359 45.8525ZM7.58789 43.0469C8.42061 43.0469 9.23496 43.2414 10.0411 43.6444L10.9355 41.8556C9.8666 41.3211 8.74736 41.0469 7.58789 41.0469V43.0469ZM10.0046 43.6252C10.9922 44.171 11.6859 44.826 12.1369 45.5736C12.5868 46.3195 12.8281 47.2124 12.8281 48.2871H14.8281C14.8281 46.9009 14.5128 45.6405 13.8495 44.5406C13.1871 43.4425 12.2109 42.5594 10.972 41.8748L10.0046 43.6252Z" fill="#590504" mask="url(#path-1-outside-1_81_887)"/>
</g>
<defs>
<filter id="filter0_d_81_887" x="0.896094" y="0.386719" width="13.2078" height="56.1527" filterUnits="userSpaceOnUse" color-interpolation-filters="sRGB">
<feFlood flood-opacity="0" result="BackgroundImageFix"/>
<feColorMatrix in="SourceAlpha" type="matrix" values="0 0 0 0 0 0 0 0 0 0 0 0 0 0 0 0 0 0 127 0" result="hardAlpha"/>
<feOffset dy="2"/>
<feGaussianBlur stdDeviation="0.05"/>
<feComposite in2="hardAlpha" operator="out"/>
<feColorMatrix type="matrix" values="0 0 0 0 0.355512 0 0 0 0 0.0802371 0 0 0 0 0.0251821 0 0 0 0.54 0"/>
<feBlend mode="normal" in2="BackgroundImageFix" result="effect1_dropShadow_81_887"/>
<feBlend mode="normal" in="SourceGraphic" in2="effect1_dropShadow_81_887" result="shape"/>
</filter>
</defs>
</svg>
