<svg width="65" height="65" viewBox="0 0 65 65" fill="none" xmlns="http://www.w3.org/2000/svg">
<circle cx="32.5" cy="32.5" r="32.5" fill="#FDD476" fill-opacity="0.1"/>
<circle cx="32.5" cy="32.5" r="28.5" fill="#FDD476" fill-opacity="0.1"/>
<circle cx="32.5" cy="32.5" r="25.5" fill="#FDD476" fill-opacity="0.1"/>
<circle cx="32.5" cy="32.5" r="22.5" fill="#FDD476" fill-opacity="0.1"/>
<circle cx="32.5" cy="32.5" r="20.5" fill="#FDD476" fill-opacity="0.1"/>
<circle cx="32.5" cy="32.5" r="17.5" fill="#FDD476" fill-opacity="0.1"/>
<circle cx="32.5" cy="32.5" r="14.5" fill="#FDD476" fill-opacity="0.1"/>
<circle cx="32.5" cy="32.5" r="12.5" fill="#FDD476" fill-opacity="0.1"/>
<path d="M30.6224 10.9357C31.3707 8.63239 34.6293 8.63239 35.3776 10.9357L38.5863 20.811C39.0549 22.2531 40.3988 23.2295 41.915 23.2295H52.2986C54.7205 23.2295 55.7274 26.3285 53.7681 27.752L45.3676 33.8554C44.1409 34.7466 43.6276 36.3264 44.0962 37.7685L47.3049 47.6439C48.0532 49.9471 45.417 51.8625 43.4578 50.4389L35.0573 44.3356C33.8305 43.4444 32.1695 43.4444 30.9428 44.3356L22.5422 50.4389C20.583 51.8624 17.9468 49.9471 18.6951 47.6439L21.9038 37.7685C22.3724 36.3264 21.8591 34.7466 20.6324 33.8554L12.2319 27.752C10.2726 26.3285 11.2795 23.2295 13.7014 23.2295H24.0849C25.6012 23.2295 26.9451 22.2531 27.4137 20.8111L30.6224 10.9357Z" fill="#F9AF03" stroke="white"/>
</svg>
