<svg width="330" height="215" viewBox="0 0 330 215" fill="none" xmlns="http://www.w3.org/2000/svg">
<g filter="url(#filter0_d_89_5470)">
<path d="M280.029 149.849L299.823 185.46L256.685 168.892L280.029 149.849Z" fill="#D9D9D9"/>
<path d="M320.648 106.36C323.444 150.597 240.665 200.047 145.128 193.847C49.5903 187.646 8.82943 118.294 10.9721 91.3891C10.408 67.5932 24.6121 16.5158 143.687 17.5382C257.534 18.5157 317.852 62.124 320.648 106.36Z" fill="#D9D9D9"/>
</g>
<path d="M33.6332 82.2204V67.6749H38.8178C39.9495 67.6749 40.887 67.8809 41.6303 68.2928C42.3737 68.7047 42.93 69.2682 43.2994 69.9831C43.6687 70.6934 43.8533 71.4936 43.8533 72.3837C43.8533 73.2786 43.6663 74.0835 43.2923 74.7985C42.9229 75.5087 42.3642 76.0722 41.6161 76.4888C40.8728 76.9007 39.9376 77.1067 38.8107 77.1067H35.2454V75.2459H38.6119C39.3268 75.2459 39.9068 75.1228 40.3519 74.8766C40.797 74.6257 41.1237 74.2847 41.332 73.8539C41.5404 73.423 41.6445 72.9329 41.6445 72.3837C41.6445 71.8345 41.5404 71.3468 41.332 70.9206C41.1237 70.4945 40.7946 70.1607 40.3448 69.9192C39.8997 69.6777 39.3126 69.557 38.5835 69.557H35.8278V82.2204H33.6332ZM49.3327 82.4618C48.6415 82.4618 48.0165 82.334 47.4577 82.0783C46.899 81.8179 46.4563 81.4415 46.1296 80.949C45.8076 80.4566 45.6467 79.8529 45.6467 79.138C45.6467 78.5224 45.765 78.0158 46.0018 77.6181C46.2385 77.2204 46.5581 76.9055 46.9606 76.6735C47.363 76.4415 47.8129 76.2663 48.31 76.1479C48.8072 76.0295 49.3138 75.9396 49.8299 75.878C50.4833 75.8023 51.0136 75.7407 51.4208 75.6934C51.828 75.6413 52.1239 75.5584 52.3086 75.4448C52.4933 75.3311 52.5856 75.1465 52.5856 74.8908V74.8411C52.5856 74.2208 52.4104 73.7402 52.06 73.3993C51.7144 73.0584 51.1983 72.888 50.5117 72.888C49.7968 72.888 49.2333 73.0466 48.8214 73.3638C48.4142 73.6763 48.1325 74.0243 47.9762 74.4079L45.9805 73.9533C46.2172 73.2904 46.5629 72.7554 47.0174 72.3482C47.4767 71.9363 48.0046 71.638 48.6012 71.4533C49.1978 71.2639 49.8252 71.1692 50.4833 71.1692C50.9189 71.1692 51.3806 71.2213 51.8683 71.3255C52.3607 71.4249 52.82 71.6096 53.2461 71.8794C53.677 72.1493 54.0297 72.5352 54.3043 73.0371C54.579 73.5343 54.7163 74.1806 54.7163 74.976V82.2204H52.6424V80.7289H52.5572C52.4199 81.0035 52.2139 81.2734 51.9393 81.5385C51.6647 81.8037 51.3119 82.0239 50.881 82.199C50.4502 82.3742 49.9341 82.4618 49.3327 82.4618ZM49.7944 80.7573C50.3815 80.7573 50.8834 80.6413 51.3001 80.4093C51.7215 80.1773 52.0411 79.8742 52.2589 79.5002C52.4814 79.1214 52.5927 78.7166 52.5927 78.2857V76.8794C52.5169 76.9552 52.3701 77.0262 52.1523 77.0925C51.9393 77.1541 51.6954 77.2085 51.4208 77.2559C51.1462 77.2985 50.8787 77.3387 50.6183 77.3766C50.3578 77.4097 50.14 77.4382 49.9648 77.4618C49.5529 77.5139 49.1765 77.6015 48.8356 77.7246C48.4994 77.8477 48.2295 78.0253 48.0259 78.2573C47.8271 78.4846 47.7276 78.7876 47.7276 79.1664C47.7276 79.6919 47.9218 80.0897 48.31 80.3596C48.6983 80.6247 49.1931 80.7573 49.7944 80.7573ZM57.5447 82.2204V71.3113H59.5973V73.0442H59.7109C59.9098 72.4571 60.2602 71.9954 60.7621 71.6593C61.2687 71.3184 61.8416 71.1479 62.4808 71.1479C62.6134 71.1479 62.7696 71.1526 62.9496 71.1621C63.1342 71.1716 63.2786 71.1834 63.3828 71.1976V73.2289C63.2976 73.2052 63.1461 73.1792 62.9283 73.1507C62.7105 73.1176 62.4927 73.101 62.2749 73.101C61.773 73.101 61.3255 73.2076 60.9325 73.4206C60.5443 73.629 60.2365 73.9202 60.0092 74.2942C59.782 74.6635 59.6683 75.0849 59.6683 75.5584V82.2204H57.5447ZM68.2976 82.4618C67.6063 82.4618 66.9813 82.334 66.4226 82.0783C65.8639 81.8179 65.4212 81.4415 65.0945 80.949C64.7725 80.4566 64.6115 79.8529 64.6115 79.138C64.6115 78.5224 64.7299 78.0158 64.9666 77.6181C65.2034 77.2204 65.523 76.9055 65.9254 76.6735C66.3279 76.4415 66.7777 76.2663 67.2749 76.1479C67.772 76.0295 68.2786 75.9396 68.7947 75.878C69.4482 75.8023 69.9785 75.7407 70.3857 75.6934C70.7929 75.6413 71.0888 75.5584 71.2734 75.4448C71.4581 75.3311 71.5504 75.1465 71.5504 74.8908V74.8411C71.5504 74.2208 71.3752 73.7402 71.0249 73.3993C70.6792 73.0584 70.1631 72.888 69.4766 72.888C68.7616 72.888 68.1982 73.0466 67.7862 73.3638C67.379 73.6763 67.0973 74.0243 66.9411 74.4079L64.9453 73.9533C65.1821 73.2904 65.5277 72.7554 65.9822 72.3482C66.4415 71.9363 66.9695 71.638 67.5661 71.4533C68.1626 71.2639 68.79 71.1692 69.4482 71.1692C69.8838 71.1692 70.3454 71.2213 70.8331 71.3255C71.3255 71.4249 71.7848 71.6096 72.2109 71.8794C72.6418 72.1493 72.9946 72.5352 73.2692 73.0371C73.5438 73.5343 73.6811 74.1806 73.6811 74.976V82.2204H71.6072V80.7289H71.522C71.3847 81.0035 71.1787 81.2734 70.9041 81.5385C70.6295 81.8037 70.2768 82.0239 69.8459 82.199C69.415 82.3742 68.8989 82.4618 68.2976 82.4618ZM68.7592 80.7573C69.3464 80.7573 69.8482 80.6413 70.2649 80.4093C70.6863 80.1773 71.0059 79.8742 71.2237 79.5002C71.4463 79.1214 71.5575 78.7166 71.5575 78.2857V76.8794C71.4818 76.9552 71.335 77.0262 71.1172 77.0925C70.9041 77.1541 70.6603 77.2085 70.3857 77.2559C70.111 77.2985 69.8435 77.3387 69.5831 77.3766C69.3227 77.4097 69.1049 77.4382 68.9297 77.4618C68.5178 77.5139 68.1413 77.6015 67.8004 77.7246C67.4643 77.8477 67.1944 78.0253 66.9908 78.2573C66.7919 78.4846 66.6925 78.7876 66.6925 79.1664C66.6925 79.6919 66.8866 80.0897 67.2749 80.3596C67.6631 80.6247 68.1579 80.7573 68.7592 80.7573ZM76.68 82.2204V67.6749H78.8036V73.0797H78.9315C79.0546 72.8525 79.2321 72.5897 79.4641 72.2914C79.6961 71.9931 80.0181 71.7327 80.43 71.5101C80.842 71.2829 81.3865 71.1692 82.0636 71.1692C82.9442 71.1692 83.7302 71.3918 84.4215 71.8368C85.1128 72.2819 85.6549 72.9235 86.0479 73.7615C86.4457 74.5996 86.6445 75.6081 86.6445 76.7871C86.6445 77.9661 86.448 78.977 86.055 79.8198C85.6621 80.6579 85.1223 81.3042 84.4357 81.7587C83.7492 82.2085 82.9656 82.4334 82.0849 82.4334C81.422 82.4334 80.8799 82.3222 80.4585 82.0996C80.0418 81.8771 79.7151 81.6167 79.4783 81.3184C79.2416 81.0201 79.0593 80.7549 78.9315 80.5229H78.7539V82.2204H76.68ZM78.761 76.7658C78.761 77.5329 78.8723 78.2052 79.0948 78.7829C79.3174 79.3605 79.6393 79.8127 80.0607 80.1394C80.4821 80.4614 80.9982 80.6223 81.609 80.6223C82.2435 80.6223 82.7738 80.4543 83.1999 80.1181C83.6261 79.7772 83.948 79.3155 84.1658 78.7331C84.3884 78.1507 84.4996 77.495 84.4996 76.7658C84.4996 76.0461 84.3907 75.3998 84.1729 74.8269C83.9599 74.254 83.6379 73.8018 83.207 73.4704C82.7809 73.1389 82.2482 72.9732 81.609 72.9732C80.9935 72.9732 80.4727 73.1318 80.0465 73.449C79.6251 73.7663 79.3055 74.209 79.0877 74.7772C78.8699 75.3454 78.761 76.0082 78.761 76.7658ZM93.7308 82.4405C92.656 82.4405 91.7304 82.2109 90.9538 81.7516C90.1821 81.2876 89.5855 80.6365 89.1641 79.7985C88.7474 78.9557 88.5391 77.9685 88.5391 76.8368C88.5391 75.7194 88.7474 74.7346 89.1641 73.8823C89.5855 73.03 90.1726 72.3648 90.9254 71.8865C91.683 71.4083 92.5684 71.1692 93.5817 71.1692C94.1972 71.1692 94.7938 71.271 95.3714 71.4746C95.9491 71.6782 96.4676 71.9978 96.9268 72.4334C97.3861 72.869 97.7483 73.4348 98.0135 74.1309C98.2786 74.8222 98.4112 75.6626 98.4112 76.6522V77.405H89.7393V75.8141H96.3303C96.3303 75.2554 96.2166 74.7606 95.9893 74.3297C95.7621 73.8941 95.4425 73.5508 95.0305 73.2999C94.6233 73.049 94.1451 72.9235 93.5959 72.9235C92.9993 72.9235 92.4785 73.0703 92.0334 73.3638C91.593 73.6526 91.2521 74.0314 91.0107 74.5002C90.7739 74.9642 90.6555 75.4685 90.6555 76.013V77.2559C90.6555 77.985 90.7834 78.6053 91.0391 79.1167C91.2995 79.628 91.6617 80.0186 92.1257 80.2885C92.5897 80.5537 93.1319 80.6863 93.7521 80.6863C94.1546 80.6863 94.5215 80.6294 94.853 80.5158C95.1844 80.3974 95.4709 80.2222 95.7124 79.9902C95.9538 79.7582 96.1385 79.4718 96.2663 79.1309L98.2763 79.4931C98.1153 80.0849 97.8265 80.6034 97.4098 81.0485C96.9979 81.4888 96.4794 81.8321 95.8544 82.0783C95.2341 82.3198 94.5263 82.4405 93.7308 82.4405ZM92.6229 69.8553L94.2848 66.5811H96.522L94.3203 69.8553H92.6229ZM102.891 75.7431V82.2204H100.767V71.3113H102.806V73.0868H102.941C103.192 72.5092 103.585 72.0452 104.12 71.6948C104.659 71.3444 105.339 71.1692 106.158 71.1692C106.901 71.1692 107.552 71.3255 108.111 71.638C108.67 71.9457 109.103 72.405 109.411 73.0158C109.719 73.6266 109.873 74.3818 109.873 75.2814V82.2204H107.749V75.5371C107.749 74.7464 107.543 74.1285 107.131 73.6834C106.719 73.2336 106.153 73.0087 105.434 73.0087C104.941 73.0087 104.503 73.1152 104.12 73.3283C103.741 73.5414 103.44 73.8539 103.218 74.2658C103 74.673 102.891 75.1654 102.891 75.7431ZM120.895 73.9746L118.971 74.3155C118.89 74.0693 118.762 73.8349 118.587 73.6124C118.417 73.3899 118.185 73.2076 117.891 73.0655C117.597 72.9235 117.23 72.8525 116.79 72.8525C116.189 72.8525 115.687 72.9874 115.284 73.2573C114.882 73.5224 114.681 73.8657 114.681 74.2871C114.681 74.6517 114.816 74.9453 115.086 75.1678C115.355 75.3903 115.791 75.5726 116.392 75.7147L118.125 76.1124C119.129 76.3444 119.877 76.7019 120.37 77.1848C120.862 77.6678 121.108 78.2952 121.108 79.0669C121.108 79.7204 120.919 80.3027 120.54 80.8141C120.166 81.3207 119.643 81.7185 118.971 82.0073C118.303 82.2961 117.529 82.4405 116.648 82.4405C115.426 82.4405 114.43 82.1801 113.658 81.6593C112.886 81.1337 112.413 80.388 112.238 79.4221L114.29 79.1096C114.418 79.6446 114.681 80.0494 115.078 80.324C115.476 80.5939 115.995 80.7289 116.634 80.7289C117.33 80.7289 117.886 80.5845 118.303 80.2956C118.72 80.0021 118.928 79.6446 118.928 79.2232C118.928 78.8823 118.8 78.5958 118.544 78.3638C118.293 78.1318 117.908 77.9566 117.387 77.8382L115.54 77.4334C114.522 77.2014 113.769 76.8321 113.282 76.3255C112.799 75.8188 112.557 75.1773 112.557 74.4007C112.557 73.7568 112.737 73.1934 113.097 72.7104C113.457 72.2275 113.954 71.851 114.588 71.5811C115.223 71.3065 115.95 71.1692 116.769 71.1692C117.948 71.1692 118.876 71.4249 119.553 71.9363C120.23 72.4429 120.677 73.1223 120.895 73.9746ZM126.121 67.6749L125.936 78.0371H123.969L123.784 67.6749H126.121ZM124.956 82.3553C124.563 82.3553 124.227 82.218 123.947 81.9434C123.668 81.664 123.531 81.3278 123.536 80.9348C123.531 80.5466 123.668 80.2151 123.947 79.9405C124.227 79.6612 124.563 79.5215 124.956 79.5215C125.339 79.5215 125.671 79.6612 125.95 79.9405C126.23 80.2151 126.372 80.5466 126.376 80.9348C126.372 81.1953 126.303 81.4344 126.17 81.6522C126.043 81.8652 125.872 82.0357 125.659 82.1635C125.446 82.2914 125.212 82.3553 124.956 82.3553ZM136.057 67.6749L140.105 79.5215H140.268L144.317 67.6749H146.689L141.455 82.2204H138.919L133.685 67.6749H136.057ZM152.12 82.4405C151.098 82.4405 150.205 82.2061 149.443 81.7374C148.681 81.2686 148.089 80.6129 147.667 79.7701C147.246 78.9273 147.035 77.9424 147.035 76.8155C147.035 75.6839 147.246 74.6943 147.667 73.8468C148.089 72.9992 148.681 72.3411 149.443 71.8723C150.205 71.4036 151.098 71.1692 152.12 71.1692C153.143 71.1692 154.036 71.4036 154.798 71.8723C155.56 72.3411 156.152 72.9992 156.574 73.8468C156.995 74.6943 157.206 75.6839 157.206 76.8155C157.206 77.9424 156.995 78.9273 156.574 79.7701C156.152 80.6129 155.56 81.2686 154.798 81.7374C154.036 82.2061 153.143 82.4405 152.12 82.4405ZM152.127 80.6579C152.79 80.6579 153.34 80.4827 153.775 80.1323C154.211 79.7819 154.533 79.3155 154.741 78.7331C154.954 78.1507 155.061 77.5092 155.061 76.8084C155.061 76.1124 154.954 75.4732 154.741 74.8908C154.533 74.3037 154.211 73.8326 153.775 73.4775C153.34 73.1223 152.79 72.9448 152.127 72.9448C151.46 72.9448 150.906 73.1223 150.466 73.4775C150.03 73.8326 149.706 74.3037 149.493 74.8908C149.284 75.4732 149.18 76.1124 149.18 76.8084C149.18 77.5092 149.284 78.1507 149.493 78.7331C149.706 79.3155 150.03 79.7819 150.466 80.1323C150.906 80.4827 151.46 80.6579 152.127 80.6579ZM164.171 82.4405C163.115 82.4405 162.206 82.2014 161.444 81.7232C160.686 81.2402 160.104 80.575 159.697 79.7275C159.29 78.8799 159.086 77.9093 159.086 76.8155C159.086 75.7076 159.294 74.7298 159.711 73.8823C160.128 73.03 160.715 72.3648 161.472 71.8865C162.23 71.4083 163.122 71.1692 164.15 71.1692C164.978 71.1692 165.717 71.3231 166.366 71.6309C167.014 71.9339 167.538 72.36 167.935 72.9093C168.338 73.4585 168.577 74.1001 168.653 74.834H166.586C166.472 74.3226 166.212 73.8823 165.805 73.513C165.402 73.1436 164.862 72.959 164.185 72.959C163.594 72.959 163.075 73.1152 162.63 73.4277C162.19 73.7355 161.846 74.1758 161.6 74.7488C161.354 75.3169 161.231 75.9893 161.231 76.7658C161.231 77.5613 161.352 78.2478 161.593 78.8255C161.835 79.4031 162.175 79.8506 162.616 80.1678C163.061 80.485 163.584 80.6436 164.185 80.6436C164.588 80.6436 164.952 80.5703 165.279 80.4235C165.611 80.272 165.888 80.0565 166.11 79.7772C166.337 79.4978 166.496 79.1616 166.586 78.7686H168.653C168.577 79.4741 168.347 80.1039 167.964 80.6579C167.58 81.2118 167.067 81.6474 166.423 81.9647C165.783 82.2819 165.033 82.4405 164.171 82.4405ZM175.625 82.4405C174.551 82.4405 173.625 82.2109 172.848 81.7516C172.077 81.2876 171.48 80.6365 171.059 79.7985C170.642 78.9557 170.434 77.9685 170.434 76.8368C170.434 75.7194 170.642 74.7346 171.059 73.8823C171.48 73.03 172.067 72.3648 172.82 71.8865C173.578 71.4083 174.463 71.1692 175.476 71.1692C176.092 71.1692 176.688 71.271 177.266 71.4746C177.844 71.6782 178.362 71.9978 178.821 72.4334C179.281 72.869 179.643 73.4348 179.908 74.1309C180.173 74.8222 180.306 75.6626 180.306 76.6522V77.405H171.634V75.8141H178.225C178.225 75.2554 178.111 74.7606 177.884 74.3297C177.657 73.8941 177.337 73.5508 176.925 73.2999C176.518 73.049 176.04 72.9235 175.49 72.9235C174.894 72.9235 174.373 73.0703 173.928 73.3638C173.488 73.6526 173.147 74.0314 172.905 74.5002C172.668 74.9642 172.55 75.4685 172.55 76.013V77.2559C172.55 77.985 172.678 78.6053 172.934 79.1167C173.194 79.628 173.556 80.0186 174.02 80.2885C174.484 80.5537 175.026 80.6863 175.647 80.6863C176.049 80.6863 176.416 80.6294 176.748 80.5158C177.079 80.3974 177.365 80.2222 177.607 79.9902C177.848 79.7582 178.033 79.4718 178.161 79.1309L180.171 79.4931C180.01 80.0849 179.721 80.6034 179.304 81.0485C178.892 81.4888 178.374 81.8321 177.749 82.0783C177.129 82.3198 176.421 82.4405 175.625 82.4405ZM176.854 70.0044L175.398 68.101L173.935 70.0044H172.017V69.8979L174.51 66.8865H176.279L178.779 69.8979V70.0044H176.854ZM192.55 82.4405C191.494 82.4405 190.585 82.2014 189.823 81.7232C189.065 81.2402 188.483 80.575 188.076 79.7275C187.668 78.8799 187.465 77.9093 187.465 76.8155C187.465 75.7076 187.673 74.7298 188.09 73.8823C188.507 73.03 189.094 72.3648 189.851 71.8865C190.609 71.4083 191.501 71.1692 192.529 71.1692C193.357 71.1692 194.096 71.3231 194.745 71.6309C195.393 71.9339 195.917 72.36 196.314 72.9093C196.717 73.4585 196.956 74.1001 197.032 74.834H194.965C194.851 74.3226 194.591 73.8823 194.184 73.513C193.781 73.1436 193.241 72.959 192.564 72.959C191.972 72.959 191.454 73.1152 191.009 73.4277C190.569 73.7355 190.225 74.1758 189.979 74.7488C189.733 75.3169 189.61 75.9893 189.61 76.7658C189.61 77.5613 189.73 78.2478 189.972 78.8255C190.213 79.4031 190.554 79.8506 190.995 80.1678C191.44 80.485 191.963 80.6436 192.564 80.6436C192.967 80.6436 193.331 80.5703 193.658 80.4235C193.989 80.272 194.266 80.0565 194.489 79.7772C194.716 79.4978 194.875 79.1616 194.965 78.7686H197.032C196.956 79.4741 196.726 80.1039 196.343 80.6579C195.959 81.2118 195.445 81.6474 194.801 81.9647C194.162 82.2819 193.412 82.4405 192.55 82.4405ZM203.898 82.4405C202.875 82.4405 201.982 82.2061 201.22 81.7374C200.458 81.2686 199.866 80.6129 199.445 79.7701C199.023 78.9273 198.812 77.9424 198.812 76.8155C198.812 75.6839 199.023 74.6943 199.445 73.8468C199.866 72.9992 200.458 72.3411 201.22 71.8723C201.982 71.4036 202.875 71.1692 203.898 71.1692C204.92 71.1692 205.813 71.4036 206.575 71.8723C207.338 72.3411 207.929 72.9992 208.351 73.8468C208.772 74.6943 208.983 75.6839 208.983 76.8155C208.983 77.9424 208.772 78.9273 208.351 79.7701C207.929 80.6129 207.338 81.2686 206.575 81.7374C205.813 82.2061 204.92 82.4405 203.898 82.4405ZM203.905 80.6579C204.568 80.6579 205.117 80.4827 205.553 80.1323C205.988 79.7819 206.31 79.3155 206.518 78.7331C206.732 78.1507 206.838 77.5092 206.838 76.8084C206.838 76.1124 206.732 75.4732 206.518 74.8908C206.31 74.3037 205.988 73.8326 205.553 73.4775C205.117 73.1223 204.568 72.9448 203.905 72.9448C203.237 72.9448 202.683 73.1223 202.243 73.4775C201.807 73.8326 201.483 74.3037 201.27 74.8908C201.062 75.4732 200.957 76.1124 200.957 76.8084C200.957 77.5092 201.062 78.1507 201.27 78.7331C201.483 79.3155 201.807 79.7819 202.243 80.1323C202.683 80.4827 203.237 80.6579 203.905 80.6579ZM211.353 82.2204V71.3113H213.392V73.0868H213.527C213.754 72.4855 214.126 72.0168 214.642 71.6806C215.158 71.3397 215.776 71.1692 216.495 71.1692C217.225 71.1692 217.835 71.3397 218.328 71.6806C218.825 72.0215 219.192 72.4902 219.429 73.0868H219.542C219.803 72.5044 220.217 72.0404 220.785 71.6948C221.353 71.3444 222.03 71.1692 222.816 71.1692C223.806 71.1692 224.613 71.4793 225.238 72.0996C225.868 72.7199 226.183 73.655 226.183 74.905V82.2204H224.059V75.1039C224.059 74.3652 223.858 73.8302 223.456 73.4988C223.053 73.1673 222.573 73.0016 222.014 73.0016C221.323 73.0016 220.785 73.2147 220.402 73.6408C220.018 74.0622 219.826 74.6043 219.826 75.2672V82.2204H217.71V74.9689C217.71 74.3771 217.525 73.9012 217.156 73.5414C216.787 73.1815 216.306 73.0016 215.714 73.0016C215.312 73.0016 214.94 73.1081 214.599 73.3212C214.263 73.5295 213.991 73.8207 213.782 74.1948C213.579 74.5688 213.477 75.0021 213.477 75.4945V82.2204H211.353ZM229.029 86.3113V71.3113H231.103V73.0797H231.281C231.404 72.8525 231.581 72.5897 231.813 72.2914C232.045 71.9931 232.367 71.7327 232.779 71.5101C233.191 71.2829 233.736 71.1692 234.413 71.1692C235.293 71.1692 236.079 71.3918 236.771 71.8368C237.462 72.2819 238.004 72.9235 238.397 73.7615C238.795 74.5996 238.994 75.6081 238.994 76.7871C238.994 77.9661 238.797 78.977 238.404 79.8198C238.011 80.6579 237.471 81.3042 236.785 81.7587C236.098 82.2085 235.315 82.4334 234.434 82.4334C233.771 82.4334 233.229 82.3222 232.808 82.0996C232.391 81.8771 232.064 81.6167 231.827 81.3184C231.591 81.0201 231.408 80.7549 231.281 80.5229H231.153V86.3113H229.029ZM231.11 76.7658C231.11 77.5329 231.221 78.2052 231.444 78.7829C231.666 79.3605 231.988 79.8127 232.41 80.1394C232.831 80.4614 233.347 80.6223 233.958 80.6223C234.593 80.6223 235.123 80.4543 235.549 80.1181C235.975 79.7772 236.297 79.3155 236.515 78.7331C236.737 78.1507 236.849 77.495 236.849 76.7658C236.849 76.0461 236.74 75.3998 236.522 74.8269C236.309 74.254 235.987 73.8018 235.556 73.4704C235.13 73.1389 234.597 72.9732 233.958 72.9732C233.343 72.9732 232.822 73.1318 232.396 73.449C231.974 73.7663 231.655 74.209 231.437 74.7772C231.219 75.3454 231.11 76.0082 231.11 76.7658ZM243.496 67.6749V82.2204H241.373V67.6749H243.496ZM251.055 82.4405C249.98 82.4405 249.055 82.2109 248.278 81.7516C247.506 81.2876 246.91 80.6365 246.488 79.7985C246.072 78.9557 245.863 77.9685 245.863 76.8368C245.863 75.7194 246.072 74.7346 246.488 73.8823C246.91 73.03 247.497 72.3648 248.25 71.8865C249.007 71.4083 249.893 71.1692 250.906 71.1692C251.521 71.1692 252.118 71.271 252.696 71.4746C253.273 71.6782 253.792 71.9978 254.251 72.4334C254.71 72.869 255.073 73.4348 255.338 74.1309C255.603 74.8222 255.735 75.6626 255.735 76.6522V77.405H247.064V75.8141H253.654C253.654 75.2554 253.541 74.7606 253.314 74.3297C253.086 73.8941 252.767 73.5508 252.355 73.2999C251.948 73.049 251.469 72.9235 250.92 72.9235C250.324 72.9235 249.803 73.0703 249.358 73.3638C248.917 73.6526 248.576 74.0314 248.335 74.5002C248.098 74.9642 247.98 75.4685 247.98 76.013V77.2559C247.98 77.985 248.108 78.6053 248.363 79.1167C248.624 79.628 248.986 80.0186 249.45 80.2885C249.914 80.5537 250.456 80.6863 251.076 80.6863C251.479 80.6863 251.846 80.6294 252.177 80.5158C252.509 80.3974 252.795 80.2222 253.037 79.9902C253.278 79.7582 253.463 79.4718 253.591 79.1309L255.6 79.4931C255.44 80.0849 255.151 80.6034 254.734 81.0485C254.322 81.4888 253.804 81.8321 253.179 82.0783C252.558 82.3198 251.85 82.4405 251.055 82.4405ZM263.184 71.3113V73.0158H257.225V71.3113H263.184ZM258.823 68.6976H260.947V79.0172C260.947 79.4292 261.008 79.7393 261.131 79.9476C261.254 80.1512 261.413 80.2909 261.607 80.3667C261.806 80.4377 262.022 80.4732 262.254 80.4732C262.424 80.4732 262.573 80.4614 262.701 80.4377C262.829 80.414 262.928 80.3951 262.999 80.3809L263.383 82.1351C263.26 82.1825 263.085 82.2298 262.857 82.2772C262.63 82.3293 262.346 82.3577 262.005 82.3624C261.446 82.3719 260.925 82.2724 260.442 82.0641C259.96 81.8558 259.569 81.5338 259.271 81.0982C258.972 80.6626 258.823 80.1157 258.823 79.4576V68.6976ZM270.011 82.4405C268.988 82.4405 268.096 82.2061 267.333 81.7374C266.571 81.2686 265.979 80.6129 265.558 79.7701C265.136 78.9273 264.926 77.9424 264.926 76.8155C264.926 75.6839 265.136 74.6943 265.558 73.8468C265.979 72.9992 266.571 72.3411 267.333 71.8723C268.096 71.4036 268.988 71.1692 270.011 71.1692C271.034 71.1692 271.926 71.4036 272.689 71.8723C273.451 72.3411 274.043 72.9992 274.464 73.8468C274.886 74.6943 275.096 75.6839 275.096 76.8155C275.096 77.9424 274.886 78.9273 274.464 79.7701C274.043 80.6129 273.451 81.2686 272.689 81.7374C271.926 82.2061 271.034 82.4405 270.011 82.4405ZM270.018 80.6579C270.681 80.6579 271.23 80.4827 271.666 80.1323C272.101 79.7819 272.423 79.3155 272.632 78.7331C272.845 78.1507 272.951 77.5092 272.951 76.8084C272.951 76.1124 272.845 75.4732 272.632 74.8908C272.423 74.3037 272.101 73.8326 271.666 73.4775C271.23 73.1223 270.681 72.9448 270.018 72.9448C269.35 72.9448 268.797 73.1223 268.356 73.4775C267.921 73.8326 267.596 74.3037 267.383 74.8908C267.175 75.4732 267.071 76.1124 267.071 76.8084C267.071 77.5092 267.175 78.1507 267.383 78.7331C267.596 79.3155 267.921 79.7819 268.356 80.1323C268.797 80.4827 269.35 80.6579 270.018 80.6579ZM284.377 77.6962V71.3113H286.508V82.2204H284.42V80.3311H284.306C284.055 80.9135 283.653 81.3989 283.099 81.7871C282.549 82.1706 281.865 82.3624 281.046 82.3624C280.345 82.3624 279.725 82.2085 279.185 81.9007C278.65 81.5882 278.229 81.1266 277.921 80.5158C277.618 79.905 277.467 79.1498 277.467 78.2502V71.3113H279.59V77.9945C279.59 78.7379 279.796 79.3297 280.208 79.7701C280.62 80.2104 281.155 80.4306 281.813 80.4306C282.211 80.4306 282.606 80.3311 282.999 80.1323C283.397 79.9334 283.726 79.6328 283.987 79.2303C284.252 78.8278 284.382 78.3165 284.377 77.6962ZM69.0726 100.311V102.016H63.1138V100.311H69.0726ZM64.7118 97.6976H66.8354V108.017C66.8354 108.429 66.897 108.739 67.0201 108.948C67.1432 109.151 67.3018 109.291 67.4959 109.367C67.6948 109.438 67.9102 109.473 68.1422 109.473C68.3127 109.473 68.4618 109.461 68.5897 109.438C68.7175 109.414 68.8169 109.395 68.888 109.381L69.2715 111.135C69.1484 111.182 68.9732 111.23 68.7459 111.277C68.5186 111.329 68.2346 111.358 67.8936 111.362C67.3349 111.372 66.8141 111.272 66.3311 111.064C65.8482 110.856 65.4576 110.534 65.1593 110.098C64.861 109.663 64.7118 109.116 64.7118 108.458V97.6976ZM75.8997 111.441C74.877 111.441 73.9844 111.206 73.2221 110.737C72.4598 110.269 71.868 109.613 71.4466 108.77C71.0252 107.927 70.8145 106.942 70.8145 105.816C70.8145 104.684 71.0252 103.694 71.4466 102.847C71.868 101.999 72.4598 101.341 73.2221 100.872C73.9844 100.404 74.877 100.169 75.8997 100.169C76.9224 100.169 77.8149 100.404 78.5772 100.872C79.3395 101.341 79.9314 101.999 80.3528 102.847C80.7742 103.694 80.9849 104.684 80.9849 105.816C80.9849 106.942 80.7742 107.927 80.3528 108.77C79.9314 109.613 79.3395 110.269 78.5772 110.737C77.8149 111.206 76.9224 111.441 75.8997 111.441ZM75.9068 109.658C76.5697 109.658 77.1189 109.483 77.5545 109.132C77.9901 108.782 78.3121 108.316 78.5204 107.733C78.7335 107.151 78.84 106.509 78.84 105.808C78.84 105.112 78.7335 104.473 78.5204 103.891C78.3121 103.304 77.9901 102.833 77.5545 102.477C77.1189 102.122 76.5697 101.945 75.9068 101.945C75.2392 101.945 74.6852 102.122 74.2449 102.477C73.8092 102.833 73.4849 103.304 73.2718 103.891C73.0635 104.473 72.9593 105.112 72.9593 105.808C72.9593 106.509 73.0635 107.151 73.2718 107.733C73.4849 108.316 73.8092 108.782 74.2449 109.132C74.6852 109.483 75.2392 109.658 75.9068 109.658ZM87.4391 111.433C86.5584 111.433 85.7724 111.209 85.0811 110.759C84.3946 110.304 83.8548 109.658 83.4618 108.82C83.0736 107.977 82.8794 106.966 82.8794 105.787C82.8794 104.608 83.0759 103.6 83.4689 102.762C83.8667 101.923 84.4112 101.282 85.1025 100.837C85.7937 100.392 86.5774 100.169 87.4533 100.169C88.1304 100.169 88.6749 100.283 89.0868 100.51C89.5035 100.733 89.8255 100.993 90.0527 101.291C90.2847 101.59 90.4647 101.852 90.5925 102.08H90.7203V96.6749H92.8439V111.22H90.7701V109.523H90.5925C90.4647 109.755 90.28 110.02 90.0385 110.318C89.8018 110.617 89.4751 110.877 89.0584 111.1C88.6417 111.322 88.102 111.433 87.4391 111.433ZM87.9078 109.622C88.5186 109.622 89.0347 109.461 89.4561 109.139C89.8823 108.813 90.2042 108.361 90.4221 107.783C90.6446 107.205 90.7559 106.533 90.7559 105.766C90.7559 105.008 90.647 104.345 90.4292 103.777C90.2114 103.209 89.8917 102.766 89.4703 102.449C89.0489 102.132 88.5281 101.973 87.9078 101.973C87.2686 101.973 86.736 102.139 86.3098 102.47C85.8837 102.802 85.5617 103.254 85.3439 103.827C85.1309 104.4 85.0243 105.046 85.0243 105.766C85.0243 106.495 85.1332 107.151 85.351 107.733C85.5688 108.316 85.8908 108.777 86.3169 109.118C86.7478 109.454 87.2781 109.622 87.9078 109.622ZM99.0495 111.462C98.3583 111.462 97.7333 111.334 97.1745 111.078C96.6158 110.818 96.1731 110.441 95.8464 109.949C95.5244 109.457 95.3635 108.853 95.3635 108.138C95.3635 107.522 95.4818 107.016 95.7186 106.618C95.9553 106.22 96.2749 105.905 96.6774 105.673C97.0798 105.441 97.5297 105.266 98.0268 105.148C98.524 105.03 99.0306 104.94 99.5467 104.878C100.2 104.802 100.73 104.741 101.138 104.693C101.545 104.641 101.841 104.558 102.025 104.445C102.21 104.331 102.302 104.146 102.302 103.891V103.841C102.302 103.221 102.127 102.74 101.777 102.399C101.431 102.058 100.915 101.888 100.229 101.888C99.5136 101.888 98.9501 102.047 98.5382 102.364C98.131 102.676 97.8493 103.024 97.693 103.408L95.6973 102.953C95.934 102.29 96.2797 101.755 96.7342 101.348C97.1935 100.936 97.7214 100.638 98.318 100.453C98.9146 100.264 99.542 100.169 100.2 100.169C100.636 100.169 101.097 100.221 101.585 100.325C102.077 100.425 102.537 100.61 102.963 100.879C103.394 101.149 103.747 101.535 104.021 102.037C104.296 102.534 104.433 103.181 104.433 103.976V111.22H102.359V109.729H102.274C102.137 110.003 101.931 110.273 101.656 110.539C101.381 110.804 101.029 111.024 100.598 111.199C100.167 111.374 99.6509 111.462 99.0495 111.462ZM99.5112 109.757C100.098 109.757 100.6 109.641 101.017 109.409C101.438 109.177 101.758 108.874 101.976 108.5C102.198 108.121 102.309 107.717 102.309 107.286V105.879C102.234 105.955 102.087 106.026 101.869 106.093C101.656 106.154 101.412 106.209 101.138 106.256C100.863 106.298 100.595 106.339 100.335 106.377C100.075 106.41 99.8568 106.438 99.6816 106.462C99.2697 106.514 98.8933 106.602 98.5524 106.725C98.2162 106.848 97.9463 107.025 97.7427 107.257C97.5439 107.485 97.4444 107.788 97.4444 108.166C97.4444 108.692 97.6386 109.09 98.0268 109.36C98.4151 109.625 98.9099 109.757 99.5112 109.757ZM115.436 102.975L113.512 103.316C113.431 103.069 113.303 102.835 113.128 102.612C112.958 102.39 112.726 102.208 112.432 102.066C112.138 101.923 111.771 101.852 111.331 101.852C110.73 101.852 110.228 101.987 109.825 102.257C109.423 102.522 109.222 102.866 109.222 103.287C109.222 103.652 109.357 103.945 109.627 104.168C109.896 104.39 110.332 104.573 110.933 104.715L112.666 105.112C113.67 105.344 114.418 105.702 114.911 106.185C115.403 106.668 115.649 107.295 115.649 108.067C115.649 108.72 115.46 109.303 115.081 109.814C114.707 110.321 114.184 110.718 113.512 111.007C112.844 111.296 112.07 111.441 111.189 111.441C109.968 111.441 108.971 111.18 108.199 110.659C107.427 110.134 106.954 109.388 106.779 108.422L108.831 108.11C108.959 108.645 109.222 109.049 109.619 109.324C110.017 109.594 110.536 109.729 111.175 109.729C111.871 109.729 112.427 109.584 112.844 109.296C113.261 109.002 113.469 108.645 113.469 108.223C113.469 107.882 113.341 107.596 113.085 107.364C112.834 107.132 112.449 106.957 111.928 106.838L110.081 106.433C109.063 106.201 108.31 105.832 107.823 105.325C107.34 104.819 107.098 104.177 107.098 103.401C107.098 102.757 107.278 102.193 107.638 101.71C107.998 101.227 108.495 100.851 109.129 100.581C109.764 100.307 110.491 100.169 111.31 100.169C112.489 100.169 113.417 100.425 114.094 100.936C114.771 101.443 115.218 102.122 115.436 102.975ZM126.452 111.462C125.761 111.462 125.136 111.334 124.577 111.078C124.018 110.818 123.575 110.441 123.249 109.949C122.927 109.457 122.766 108.853 122.766 108.138C122.766 107.522 122.884 107.016 123.121 106.618C123.358 106.22 123.677 105.905 124.08 105.673C124.482 105.441 124.932 105.266 125.429 105.148C125.926 105.03 126.433 104.94 126.949 104.878C127.602 104.802 128.133 104.741 128.54 104.693C128.947 104.641 129.243 104.558 129.428 104.445C129.612 104.331 129.705 104.146 129.705 103.891V103.841C129.705 103.221 129.53 102.74 129.179 102.399C128.834 102.058 128.317 101.888 127.631 101.888C126.916 101.888 126.352 102.047 125.941 102.364C125.533 102.676 125.252 103.024 125.095 103.408L123.1 102.953C123.336 102.29 123.682 101.755 124.137 101.348C124.596 100.936 125.124 100.638 125.72 100.453C126.317 100.264 126.944 100.169 127.602 100.169C128.038 100.169 128.5 100.221 128.987 100.325C129.48 100.425 129.939 100.61 130.365 100.879C130.796 101.149 131.149 101.535 131.423 102.037C131.698 102.534 131.835 103.181 131.835 103.976V111.22H129.762V109.729H129.676C129.539 110.003 129.333 110.273 129.058 110.539C128.784 110.804 128.431 111.024 128 111.199C127.569 111.374 127.053 111.462 126.452 111.462ZM126.914 109.757C127.501 109.757 128.003 109.641 128.419 109.409C128.841 109.177 129.16 108.874 129.378 108.5C129.601 108.121 129.712 107.717 129.712 107.286V105.879C129.636 105.955 129.489 106.026 129.271 106.093C129.058 106.154 128.815 106.209 128.54 106.256C128.265 106.298 127.998 106.339 127.737 106.377C127.477 106.41 127.259 106.438 127.084 106.462C126.672 106.514 126.296 106.602 125.955 106.725C125.619 106.848 125.349 107.025 125.145 107.257C124.946 107.485 124.847 107.788 124.847 108.166C124.847 108.692 125.041 109.09 125.429 109.36C125.817 109.625 126.312 109.757 126.914 109.757ZM142.839 102.975L140.914 103.316C140.833 103.069 140.706 102.835 140.53 102.612C140.36 102.39 140.128 102.208 139.834 102.066C139.541 101.923 139.174 101.852 138.733 101.852C138.132 101.852 137.63 101.987 137.228 102.257C136.825 102.522 136.624 102.866 136.624 103.287C136.624 103.652 136.759 103.945 137.029 104.168C137.299 104.39 137.734 104.573 138.336 104.715L140.069 105.112C141.073 105.344 141.821 105.702 142.313 106.185C142.805 106.668 143.052 107.295 143.052 108.067C143.052 108.72 142.862 109.303 142.483 109.814C142.109 110.321 141.586 110.718 140.914 111.007C140.246 111.296 139.472 111.441 138.591 111.441C137.37 111.441 136.373 111.18 135.601 110.659C134.83 110.134 134.356 109.388 134.181 108.422L136.233 108.11C136.361 108.645 136.624 109.049 137.022 109.324C137.42 109.594 137.938 109.729 138.577 109.729C139.273 109.729 139.83 109.584 140.246 109.296C140.663 109.002 140.871 108.645 140.871 108.223C140.871 107.882 140.743 107.596 140.488 107.364C140.237 107.132 139.851 106.957 139.33 106.838L137.483 106.433C136.465 106.201 135.713 105.832 135.225 105.325C134.742 104.819 134.501 104.177 134.501 103.401C134.501 102.757 134.68 102.193 135.04 101.71C135.4 101.227 135.897 100.851 136.532 100.581C137.166 100.307 137.893 100.169 138.712 100.169C139.891 100.169 140.819 100.425 141.496 100.936C142.173 101.443 142.621 102.122 142.839 102.975ZM150.68 111.22V100.311H152.718V102.087H152.853C153.08 101.486 153.452 101.017 153.968 100.681C154.484 100.34 155.102 100.169 155.822 100.169C156.551 100.169 157.162 100.34 157.654 100.681C158.151 101.021 158.518 101.49 158.755 102.087H158.868C159.129 101.504 159.543 101.04 160.111 100.695C160.68 100.344 161.357 100.169 162.143 100.169C163.132 100.169 163.939 100.479 164.564 101.1C165.194 101.72 165.509 102.655 165.509 103.905V111.22H163.385V104.104C163.385 103.365 163.184 102.83 162.782 102.499C162.379 102.167 161.899 102.002 161.34 102.002C160.649 102.002 160.111 102.215 159.728 102.641C159.344 103.062 159.153 103.604 159.153 104.267V111.22H157.036V103.969C157.036 103.377 156.851 102.901 156.482 102.541C156.113 102.182 155.632 102.002 155.04 102.002C154.638 102.002 154.266 102.108 153.925 102.321C153.589 102.53 153.317 102.821 153.108 103.195C152.905 103.569 152.803 104.002 152.803 104.494V111.22H150.68ZM168.355 111.22V100.311H170.479V111.22H168.355ZM169.428 98.628C169.058 98.628 168.741 98.5049 168.476 98.2587C168.216 98.0078 168.085 97.7095 168.085 97.3638C168.085 97.0134 168.216 96.7151 168.476 96.4689C168.741 96.218 169.058 96.0925 169.428 96.0925C169.797 96.0925 170.112 96.218 170.372 96.4689C170.637 96.7151 170.77 97.0134 170.77 97.3638C170.77 97.7095 170.637 98.0078 170.372 98.2587C170.112 98.5049 169.797 98.628 169.428 98.628ZM181.51 102.975L179.586 103.316C179.505 103.069 179.377 102.835 179.202 102.612C179.032 102.39 178.8 102.208 178.506 102.066C178.213 101.923 177.846 101.852 177.405 101.852C176.804 101.852 176.302 101.987 175.9 102.257C175.497 102.522 175.296 102.866 175.296 103.287C175.296 103.652 175.431 103.945 175.701 104.168C175.971 104.39 176.406 104.573 177.008 104.715L178.741 105.112C179.744 105.344 180.492 105.702 180.985 106.185C181.477 106.668 181.724 107.295 181.724 108.067C181.724 108.72 181.534 109.303 181.155 109.814C180.781 110.321 180.258 110.718 179.586 111.007C178.918 111.296 178.144 111.441 177.263 111.441C176.042 111.441 175.045 111.18 174.273 110.659C173.501 110.134 173.028 109.388 172.853 108.422L174.905 108.11C175.033 108.645 175.296 109.049 175.694 109.324C176.091 109.594 176.61 109.729 177.249 109.729C177.945 109.729 178.501 109.584 178.918 109.296C179.335 109.002 179.543 108.645 179.543 108.223C179.543 107.882 179.415 107.596 179.16 107.364C178.909 107.132 178.523 106.957 178.002 106.838L176.155 106.433C175.137 106.201 174.385 105.832 173.897 105.325C173.414 104.819 173.172 104.177 173.172 103.401C173.172 102.757 173.352 102.193 173.712 101.71C174.072 101.227 174.569 100.851 175.204 100.581C175.838 100.307 176.565 100.169 177.384 100.169C178.563 100.169 179.491 100.425 180.168 100.936C180.845 101.443 181.293 102.122 181.51 102.975ZM192.233 102.975L190.308 103.316C190.228 103.069 190.1 102.835 189.925 102.612C189.754 102.39 189.522 102.208 189.229 102.066C188.935 101.923 188.568 101.852 188.128 101.852C187.527 101.852 187.025 101.987 186.622 102.257C186.22 102.522 186.019 102.866 186.019 103.287C186.019 103.652 186.154 103.945 186.423 104.168C186.693 104.39 187.129 104.573 187.73 104.715L189.463 105.112C190.467 105.344 191.215 105.702 191.708 106.185C192.2 106.668 192.446 107.295 192.446 108.067C192.446 108.72 192.257 109.303 191.878 109.814C191.504 110.321 190.981 110.718 190.308 111.007C189.641 111.296 188.867 111.441 187.986 111.441C186.764 111.441 185.768 111.18 184.996 110.659C184.224 110.134 183.751 109.388 183.575 108.422L185.628 108.11C185.756 108.645 186.019 109.049 186.416 109.324C186.814 109.594 187.333 109.729 187.972 109.729C188.668 109.729 189.224 109.584 189.641 109.296C190.057 109.002 190.266 108.645 190.266 108.223C190.266 107.882 190.138 107.596 189.882 107.364C189.631 107.132 189.245 106.957 188.725 106.838L186.878 106.433C185.86 106.201 185.107 105.832 184.619 105.325C184.137 104.819 183.895 104.177 183.895 103.401C183.895 102.757 184.075 102.193 184.435 101.71C184.795 101.227 185.292 100.851 185.926 100.581C186.561 100.307 187.288 100.169 188.107 100.169C189.286 100.169 190.214 100.425 190.891 100.936C191.568 101.443 192.015 102.122 192.233 102.975ZM199.376 111.441C198.354 111.441 197.461 111.206 196.699 110.737C195.936 110.269 195.345 109.613 194.923 108.77C194.502 107.927 194.291 106.942 194.291 105.816C194.291 104.684 194.502 103.694 194.923 102.847C195.345 101.999 195.936 101.341 196.699 100.872C197.461 100.404 198.354 100.169 199.376 100.169C200.399 100.169 201.291 100.404 202.054 100.872C202.816 101.341 203.408 101.999 203.829 102.847C204.251 103.694 204.461 104.684 204.461 105.816C204.461 106.942 204.251 107.927 203.829 108.77C203.408 109.613 202.816 110.269 202.054 110.737C201.291 111.206 200.399 111.441 199.376 111.441ZM199.383 109.658C200.046 109.658 200.595 109.483 201.031 109.132C201.467 108.782 201.789 108.316 201.997 107.733C202.21 107.151 202.317 106.509 202.317 105.808C202.317 105.112 202.21 104.473 201.997 103.891C201.789 103.304 201.467 102.833 201.031 102.477C200.595 102.122 200.046 101.945 199.383 101.945C198.716 101.945 198.162 102.122 197.721 102.477C197.286 102.833 196.961 103.304 196.748 103.891C196.54 104.473 196.436 105.112 196.436 105.808C196.436 106.509 196.54 107.151 196.748 107.733C196.961 108.316 197.286 108.782 197.721 109.132C198.162 109.483 198.716 109.658 199.383 109.658ZM197.238 98.9902L195.811 98.9476C195.811 98.1616 196.022 97.5343 196.443 97.0655C196.869 96.5968 197.395 96.3624 198.02 96.3624C198.309 96.3624 198.562 96.4121 198.78 96.5115C198.997 96.6062 199.201 96.7175 199.39 96.8454C199.585 96.9685 199.776 97.0797 199.966 97.1792C200.16 97.2739 200.375 97.3212 200.612 97.3212C200.887 97.3212 201.109 97.217 201.28 97.0087C201.455 96.8004 201.542 96.5423 201.542 96.2346L202.942 96.3269C202.942 97.1176 202.729 97.7402 202.302 98.1948C201.876 98.6446 201.353 98.8719 200.733 98.8766C200.397 98.8766 200.117 98.8293 199.895 98.7346C199.677 98.6351 199.483 98.5239 199.312 98.4007C199.142 98.2729 198.967 98.1593 198.787 98.0598C198.607 97.9604 198.391 97.9107 198.14 97.9107C197.875 97.9107 197.657 98.0149 197.487 98.2232C197.321 98.4268 197.238 98.6825 197.238 98.9902ZM211.534 111.441C210.459 111.441 209.533 111.211 208.757 110.752C207.985 110.288 207.388 109.637 206.967 108.798C206.55 107.956 206.342 106.968 206.342 105.837C206.342 104.719 206.55 103.735 206.967 102.882C207.388 102.03 207.975 101.365 208.728 100.887C209.486 100.408 210.371 100.169 211.384 100.169C212 100.169 212.597 100.271 213.174 100.475C213.752 100.678 214.27 100.998 214.73 101.433C215.189 101.869 215.551 102.435 215.816 103.131C216.081 103.822 216.214 104.663 216.214 105.652V106.405H207.542V104.814H214.133C214.133 104.255 214.019 103.761 213.792 103.33C213.565 102.894 213.245 102.551 212.833 102.3C212.426 102.049 211.948 101.923 211.399 101.923C210.802 101.923 210.281 102.07 209.836 102.364C209.396 102.653 209.055 103.031 208.813 103.5C208.577 103.964 208.458 104.468 208.458 105.013V106.256C208.458 106.985 208.586 107.605 208.842 108.117C209.102 108.628 209.464 109.019 209.928 109.289C210.392 109.554 210.935 109.686 211.555 109.686C211.957 109.686 212.324 109.629 212.656 109.516C212.987 109.397 213.274 109.222 213.515 108.99C213.757 108.758 213.941 108.472 214.069 108.131L216.079 108.493C215.918 109.085 215.629 109.603 215.213 110.048C214.801 110.489 214.282 110.832 213.657 111.078C213.037 111.32 212.329 111.441 211.534 111.441ZM226.745 102.975L224.82 103.316C224.74 103.069 224.612 102.835 224.437 102.612C224.266 102.39 224.034 102.208 223.741 102.066C223.447 101.923 223.08 101.852 222.64 101.852C222.038 101.852 221.537 101.987 221.134 102.257C220.732 102.522 220.53 102.866 220.53 103.287C220.53 103.652 220.665 103.945 220.935 104.168C221.205 104.39 221.641 104.573 222.242 104.715L223.975 105.112C224.979 105.344 225.727 105.702 226.219 106.185C226.712 106.668 226.958 107.295 226.958 108.067C226.958 108.72 226.769 109.303 226.39 109.814C226.016 110.321 225.492 110.718 224.82 111.007C224.153 111.296 223.378 111.441 222.498 111.441C221.276 111.441 220.279 111.18 219.508 110.659C218.736 110.134 218.262 109.388 218.087 108.422L220.14 108.11C220.268 108.645 220.53 109.049 220.928 109.324C221.326 109.594 221.844 109.729 222.483 109.729C223.18 109.729 223.736 109.584 224.153 109.296C224.569 109.002 224.778 108.645 224.778 108.223C224.778 107.882 224.65 107.596 224.394 107.364C224.143 107.132 223.757 106.957 223.236 106.838L221.39 106.433C220.372 106.201 219.619 105.832 219.131 105.325C218.648 104.819 218.407 104.177 218.407 103.401C218.407 102.757 218.587 102.193 218.947 101.71C219.306 101.227 219.804 100.851 220.438 100.581C221.073 100.307 221.799 100.169 222.618 100.169C223.797 100.169 224.725 100.425 225.403 100.936C226.08 101.443 226.527 102.122 226.745 102.975ZM238.67 111.433C237.789 111.433 237.003 111.209 236.312 110.759C235.625 110.304 235.085 109.658 234.692 108.82C234.304 107.977 234.11 106.966 234.11 105.787C234.11 104.608 234.306 103.6 234.699 102.762C235.097 101.923 235.642 101.282 236.333 100.837C237.024 100.392 237.808 100.169 238.684 100.169C239.361 100.169 239.905 100.283 240.317 100.51C240.734 100.733 241.056 100.993 241.283 101.291C241.515 101.59 241.695 101.852 241.823 102.08H241.951V96.6749H244.074V111.22H242.001V109.523H241.823C241.695 109.755 241.51 110.02 241.269 110.318C241.032 110.617 240.706 110.877 240.289 111.1C239.872 111.322 239.332 111.433 238.67 111.433ZM239.138 109.622C239.749 109.622 240.265 109.461 240.687 109.139C241.113 108.813 241.435 108.361 241.653 107.783C241.875 107.205 241.986 106.533 241.986 105.766C241.986 105.008 241.877 104.345 241.66 103.777C241.442 103.209 241.122 102.766 240.701 102.449C240.279 102.132 239.759 101.973 239.138 101.973C238.499 101.973 237.966 102.139 237.54 102.47C237.114 102.802 236.792 103.254 236.574 103.827C236.361 104.4 236.255 105.046 236.255 105.766C236.255 106.495 236.364 107.151 236.581 107.733C236.799 108.316 237.121 108.777 237.547 109.118C237.978 109.454 238.509 109.622 239.138 109.622ZM251.807 111.441C250.732 111.441 249.807 111.211 249.03 110.752C248.258 110.288 247.662 109.637 247.24 108.798C246.824 107.956 246.615 106.968 246.615 105.837C246.615 104.719 246.824 103.735 247.24 102.882C247.662 102.03 248.249 101.365 249.002 100.887C249.759 100.408 250.645 100.169 251.658 100.169C252.273 100.169 252.87 100.271 253.448 100.475C254.025 100.678 254.544 100.998 255.003 101.433C255.462 101.869 255.825 102.435 256.09 103.131C256.355 103.822 256.487 104.663 256.487 105.652V106.405H247.816V104.814H254.406C254.406 104.255 254.293 103.761 254.066 103.33C253.838 102.894 253.519 102.551 253.107 102.3C252.7 102.049 252.221 101.923 251.672 101.923C251.075 101.923 250.555 102.07 250.11 102.364C249.669 102.653 249.328 103.031 249.087 103.5C248.85 103.964 248.732 104.468 248.732 105.013V106.256C248.732 106.985 248.86 107.605 249.115 108.117C249.376 108.628 249.738 109.019 250.202 109.289C250.666 109.554 251.208 109.686 251.828 109.686C252.231 109.686 252.598 109.629 252.929 109.516C253.261 109.397 253.547 109.222 253.789 108.99C254.03 108.758 254.215 108.472 254.343 108.131L256.352 108.493C256.191 109.085 255.903 109.603 255.486 110.048C255.074 110.489 254.556 110.832 253.931 111.078C253.31 111.32 252.602 111.441 251.807 111.441ZM51.0417 131.975L49.117 132.316C49.0365 132.069 48.9087 131.835 48.7335 131.612C48.563 131.39 48.331 131.208 48.0375 131.066C47.7439 130.923 47.377 130.852 46.9366 130.852C46.3353 130.852 45.8334 130.987 45.4309 131.257C45.0285 131.522 44.8272 131.866 44.8272 132.287C44.8272 132.652 44.9622 132.945 45.2321 133.168C45.502 133.39 45.9376 133.573 46.5389 133.715L48.2718 134.112C49.2756 134.344 50.0237 134.702 50.5162 135.185C51.0086 135.668 51.2548 136.295 51.2548 137.067C51.2548 137.72 51.0654 138.303 50.6866 138.814C50.3126 139.321 49.7894 139.718 49.117 140.007C48.4494 140.296 47.6752 140.441 46.7946 140.441C45.573 140.441 44.5763 140.18 43.8045 139.659C43.0327 139.134 42.5592 138.388 42.3841 137.422L44.4366 137.11C44.5645 137.645 44.8272 138.049 45.225 138.324C45.6227 138.594 46.1412 138.729 46.7804 138.729C47.4764 138.729 48.0327 138.584 48.4494 138.296C48.8661 138.002 49.0744 137.645 49.0744 137.223C49.0744 136.882 48.9466 136.596 48.6909 136.364C48.4399 136.132 48.054 135.957 47.5332 135.838L45.6866 135.433C44.6686 135.201 43.9158 134.832 43.4281 134.325C42.9451 133.819 42.7037 133.177 42.7037 132.401C42.7037 131.757 42.8836 131.193 43.2434 130.71C43.6033 130.227 44.1004 129.851 44.7349 129.581C45.3694 129.307 46.0962 129.169 46.9153 129.169C48.0943 129.169 49.0223 129.425 49.6994 129.936C50.3765 130.443 50.8239 131.122 51.0417 131.975ZM58.2914 140.441C57.2166 140.441 56.2909 140.211 55.5144 139.752C54.7426 139.288 54.146 138.637 53.7246 137.798C53.3079 136.956 53.0996 135.968 53.0996 134.837C53.0996 133.719 53.3079 132.735 53.7246 131.882C54.146 131.03 54.7331 130.365 55.486 129.887C56.2435 129.408 57.129 129.169 58.1422 129.169C58.7578 129.169 59.3543 129.271 59.932 129.475C60.5096 129.678 61.0281 129.998 61.4874 130.433C61.9467 130.869 62.3089 131.435 62.574 132.131C62.8392 132.822 62.9718 133.663 62.9718 134.652V135.405H54.2999V133.814H60.8908C60.8908 133.255 60.7772 132.761 60.5499 132.33C60.3226 131.894 60.003 131.551 59.5911 131.3C59.1839 131.049 58.7057 130.923 58.1564 130.923C57.5598 130.923 57.039 131.07 56.5939 131.364C56.1536 131.653 55.8127 132.031 55.5712 132.5C55.3345 132.964 55.2161 133.468 55.2161 134.013V135.256C55.2161 135.985 55.3439 136.605 55.5996 137.117C55.86 137.628 56.2222 138.019 56.6863 138.289C57.1503 138.554 57.6924 138.686 58.3127 138.686C58.7151 138.686 59.0821 138.629 59.4135 138.516C59.745 138.397 60.0314 138.222 60.2729 137.99C60.5144 137.758 60.699 137.472 60.8269 137.131L62.8368 137.493C62.6758 138.085 62.387 138.603 61.9703 139.048C61.5584 139.489 61.04 139.832 60.415 140.078C59.7947 140.32 59.0868 140.441 58.2914 140.441ZM69.9018 144.539C69.0353 144.539 68.2896 144.425 67.6646 144.198C67.0443 143.97 66.5377 143.67 66.1447 143.296C65.7517 142.922 65.4582 142.512 65.264 142.067L67.0893 141.314C67.2172 141.522 67.3876 141.743 67.6007 141.975C67.8185 142.211 68.112 142.413 68.4814 142.578C68.8554 142.744 69.336 142.827 69.9231 142.827C70.728 142.827 71.3933 142.63 71.9189 142.237C72.4444 141.849 72.7072 141.229 72.7072 140.377V138.232H72.5723C72.4444 138.464 72.2598 138.722 72.0183 139.006C71.7815 139.29 71.4548 139.536 71.0382 139.744C70.6215 139.953 70.0794 140.057 69.4118 140.057C68.55 140.057 67.7735 139.856 67.0822 139.453C66.3957 139.046 65.8511 138.447 65.4487 137.656C65.051 136.861 64.8521 135.883 64.8521 134.723C64.8521 133.563 65.0486 132.569 65.4416 131.74C65.8393 130.912 66.3838 130.277 67.0751 129.837C67.7664 129.392 68.55 129.169 69.426 129.169C70.103 129.169 70.6499 129.283 71.0666 129.51C71.4833 129.733 71.8076 129.993 72.0396 130.291C72.2763 130.59 72.4586 130.852 72.5865 131.08H72.7427V129.311H74.8237V140.462C74.8237 141.399 74.6059 142.169 74.1703 142.77C73.7347 143.371 73.1452 143.816 72.4018 144.105C71.6632 144.394 70.8298 144.539 69.9018 144.539ZM69.8805 138.296C70.4913 138.296 71.0074 138.154 71.4288 137.869C71.8549 137.581 72.1769 137.169 72.3947 136.634C72.6172 136.094 72.7285 135.448 72.7285 134.695C72.7285 133.961 72.6196 133.315 72.4018 132.756C72.184 132.197 71.8644 131.762 71.443 131.449C71.0216 131.132 70.5008 130.973 69.8805 130.973C69.2413 130.973 68.7086 131.139 68.2825 131.47C67.8564 131.797 67.5344 132.242 67.3166 132.806C67.1035 133.369 66.997 133.999 66.997 134.695C66.997 135.41 67.1059 136.037 67.3237 136.577C67.5415 137.117 67.8635 137.538 68.2896 137.841C68.7205 138.144 69.2508 138.296 69.8805 138.296ZM84.5822 135.696V129.311H86.7129V140.22H84.6248V138.331H84.5112C84.2602 138.914 83.8578 139.399 83.3038 139.787C82.7546 140.171 82.0704 140.362 81.2512 140.362C80.5505 140.362 79.9302 140.209 79.3904 139.901C78.8554 139.588 78.434 139.127 78.1262 138.516C77.8232 137.905 77.6717 137.15 77.6717 136.25V129.311H79.7953V135.994C79.7953 136.738 80.0012 137.33 80.4132 137.77C80.8251 138.21 81.3601 138.431 82.0183 138.431C82.416 138.431 82.8114 138.331 83.2044 138.132C83.6021 137.933 83.9312 137.633 84.1916 137.23C84.4567 136.828 84.5869 136.316 84.5822 135.696ZM89.5662 140.22V129.311H91.6188V131.044H91.7324C91.9313 130.457 92.2817 129.995 92.7836 129.659C93.2902 129.318 93.8631 129.148 94.5023 129.148C94.6349 129.148 94.7911 129.153 94.9711 129.162C95.1557 129.172 95.3001 129.183 95.4043 129.198V131.229C95.3191 131.205 95.1676 131.179 94.9498 131.151C94.7319 131.118 94.5141 131.101 94.2963 131.101C93.7944 131.101 93.347 131.208 92.954 131.421C92.5658 131.629 92.258 131.92 92.0307 132.294C91.8034 132.664 91.6898 133.085 91.6898 133.558V140.22H89.5662ZM100.319 140.462C99.6278 140.462 99.0028 140.334 98.4441 140.078C97.8854 139.818 97.4426 139.441 97.1159 138.949C96.794 138.457 96.633 137.853 96.633 137.138C96.633 136.522 96.7514 136.016 96.9881 135.618C97.2248 135.22 97.5444 134.905 97.9469 134.673C98.3494 134.441 98.7992 134.266 99.2963 134.148C99.7935 134.03 100.3 133.94 100.816 133.878C101.47 133.802 102 133.741 102.407 133.693C102.814 133.641 103.11 133.558 103.295 133.445C103.48 133.331 103.572 133.146 103.572 132.891V132.841C103.572 132.221 103.397 131.74 103.046 131.399C102.701 131.058 102.185 130.888 101.498 130.888C100.783 130.888 100.22 131.047 99.8077 131.364C99.4005 131.676 99.1188 132.024 98.9625 132.408L96.9668 131.953C97.2035 131.29 97.5492 130.755 98.0037 130.348C98.463 129.936 98.9909 129.638 99.5875 129.453C100.184 129.264 100.811 129.169 101.47 129.169C101.905 129.169 102.367 129.221 102.855 129.325C103.347 129.425 103.806 129.61 104.232 129.879C104.663 130.149 105.016 130.535 105.291 131.037C105.565 131.534 105.703 132.181 105.703 132.976V140.22H103.629V138.729H103.544C103.406 139.003 103.2 139.273 102.926 139.539C102.651 139.804 102.298 140.024 101.867 140.199C101.436 140.374 100.92 140.462 100.319 140.462ZM100.781 138.757C101.368 138.757 101.87 138.641 102.286 138.409C102.708 138.177 103.027 137.874 103.245 137.5C103.468 137.121 103.579 136.717 103.579 136.286V134.879C103.503 134.955 103.356 135.026 103.139 135.093C102.926 135.154 102.682 135.209 102.407 135.256C102.133 135.298 101.865 135.339 101.605 135.377C101.344 135.41 101.126 135.438 100.951 135.462C100.539 135.514 100.163 135.602 99.8219 135.725C99.4857 135.848 99.2159 136.025 99.0123 136.257C98.8134 136.485 98.714 136.788 98.714 137.166C98.714 137.692 98.9081 138.09 99.2963 138.36C99.6846 138.625 100.179 138.757 100.781 138.757ZM110.655 133.743V140.22H108.531V129.311H110.569V131.087H110.704C110.955 130.509 111.348 130.045 111.883 129.695C112.423 129.344 113.103 129.169 113.922 129.169C114.665 129.169 115.316 129.325 115.875 129.638C116.434 129.946 116.867 130.405 117.175 131.016C117.482 131.627 117.636 132.382 117.636 133.281V140.22H115.513V133.537C115.513 132.746 115.307 132.128 114.895 131.683C114.483 131.234 113.917 131.009 113.197 131.009C112.705 131.009 112.267 131.115 111.883 131.328C111.505 131.541 111.204 131.854 110.981 132.266C110.764 132.673 110.655 133.165 110.655 133.743ZM125.079 140.441C124.023 140.441 123.114 140.201 122.352 139.723C121.595 139.24 121.012 138.575 120.605 137.727C120.198 136.88 119.994 135.909 119.994 134.816C119.994 133.708 120.202 132.73 120.619 131.882C121.036 131.03 121.623 130.365 122.381 129.887C123.138 129.408 124.031 129.169 125.058 129.169C125.887 129.169 126.625 129.323 127.274 129.631C127.923 129.934 128.446 130.36 128.844 130.909C129.246 131.459 129.485 132.1 129.561 132.834H127.494C127.381 132.323 127.12 131.882 126.713 131.513C126.31 131.144 125.771 130.959 125.094 130.959C124.502 130.959 123.983 131.115 123.538 131.428C123.098 131.736 122.755 132.176 122.508 132.749C122.262 133.317 122.139 133.989 122.139 134.766C122.139 135.561 122.26 136.248 122.501 136.825C122.743 137.403 123.084 137.851 123.524 138.168C123.969 138.485 124.492 138.644 125.094 138.644C125.496 138.644 125.861 138.57 126.187 138.423C126.519 138.272 126.796 138.057 127.018 137.777C127.246 137.498 127.404 137.162 127.494 136.769H129.561C129.485 137.474 129.256 138.104 128.872 138.658C128.488 139.212 127.975 139.647 127.331 139.965C126.692 140.282 125.941 140.441 125.079 140.441ZM124.312 140.164H125.704L125.591 140.746C126.003 140.812 126.363 140.978 126.67 141.243C126.978 141.508 127.132 141.908 127.132 142.443C127.137 143.083 126.86 143.601 126.301 143.999C125.747 144.396 124.944 144.595 123.893 144.595L123.851 143.409C124.343 143.409 124.741 143.338 125.044 143.196C125.352 143.054 125.508 142.825 125.513 142.507C125.517 142.19 125.399 141.968 125.157 141.84C124.921 141.712 124.542 141.622 124.021 141.57L124.312 140.164ZM135.007 140.462C134.315 140.462 133.69 140.334 133.132 140.078C132.573 139.818 132.13 139.441 131.803 138.949C131.481 138.457 131.32 137.853 131.32 137.138C131.32 136.522 131.439 136.016 131.676 135.618C131.912 135.22 132.232 134.905 132.634 134.673C133.037 134.441 133.487 134.266 133.984 134.148C134.481 134.03 134.988 133.94 135.504 133.878C136.157 133.802 136.687 133.741 137.095 133.693C137.502 133.641 137.798 133.558 137.982 133.445C138.167 133.331 138.259 133.146 138.259 132.891V132.841C138.259 132.221 138.084 131.74 137.734 131.399C137.388 131.058 136.872 130.888 136.186 130.888C135.471 130.888 134.907 131.047 134.495 131.364C134.088 131.676 133.806 132.024 133.65 132.408L131.654 131.953C131.891 131.29 132.237 130.755 132.691 130.348C133.151 129.936 133.678 129.638 134.275 129.453C134.872 129.264 135.499 129.169 136.157 129.169C136.593 129.169 137.054 129.221 137.542 129.325C138.035 129.425 138.494 129.61 138.92 129.879C139.351 130.149 139.704 130.535 139.978 131.037C140.253 131.534 140.39 132.181 140.39 132.976V140.22H138.316V138.729H138.231C138.094 139.003 137.888 139.273 137.613 139.539C137.338 139.804 136.986 140.024 136.555 140.199C136.124 140.374 135.608 140.462 135.007 140.462ZM135.468 138.757C136.055 138.757 136.557 138.641 136.974 138.409C137.395 138.177 137.715 137.874 137.933 137.5C138.155 137.121 138.267 136.717 138.267 136.286V134.879C138.191 134.955 138.044 135.026 137.826 135.093C137.613 135.154 137.369 135.209 137.095 135.256C136.82 135.298 136.552 135.339 136.292 135.377C136.032 135.41 135.814 135.438 135.639 135.462C135.227 135.514 134.85 135.602 134.509 135.725C134.173 135.848 133.903 136.025 133.7 136.257C133.501 136.485 133.401 136.788 133.401 137.166C133.401 137.692 133.596 138.09 133.984 138.36C134.372 138.625 134.867 138.757 135.468 138.757ZM153.107 140.441C152.051 140.441 151.142 140.201 150.379 139.723C149.622 139.24 149.039 138.575 148.632 137.727C148.225 136.88 148.021 135.909 148.021 134.816C148.021 133.708 148.23 132.73 148.646 131.882C149.063 131.03 149.65 130.365 150.408 129.887C151.165 129.408 152.058 129.169 153.085 129.169C153.914 129.169 154.653 129.323 155.301 129.631C155.95 129.934 156.473 130.36 156.871 130.909C157.273 131.459 157.512 132.1 157.588 132.834H155.521C155.408 132.323 155.147 131.882 154.74 131.513C154.338 131.144 153.798 130.959 153.121 130.959C152.529 130.959 152.011 131.115 151.566 131.428C151.125 131.736 150.782 132.176 150.536 132.749C150.289 133.317 150.166 133.989 150.166 134.766C150.166 135.561 150.287 136.248 150.529 136.825C150.77 137.403 151.111 137.851 151.551 138.168C151.996 138.485 152.52 138.644 153.121 138.644C153.523 138.644 153.888 138.57 154.215 138.423C154.546 138.272 154.823 138.057 155.046 137.777C155.273 137.498 155.432 137.162 155.521 136.769H157.588C157.512 137.474 157.283 138.104 156.899 138.658C156.516 139.212 156.002 139.647 155.358 139.965C154.719 140.282 153.968 140.441 153.107 140.441ZM164.454 140.441C163.432 140.441 162.539 140.206 161.777 139.737C161.015 139.269 160.423 138.613 160.001 137.77C159.58 136.927 159.369 135.942 159.369 134.816C159.369 133.684 159.58 132.694 160.001 131.847C160.423 130.999 161.015 130.341 161.777 129.872C162.539 129.404 163.432 129.169 164.454 129.169C165.477 129.169 166.37 129.404 167.132 129.872C167.894 130.341 168.486 130.999 168.907 131.847C169.329 132.694 169.54 133.684 169.54 134.816C169.54 135.942 169.329 136.927 168.907 137.77C168.486 138.613 167.894 139.269 167.132 139.737C166.37 140.206 165.477 140.441 164.454 140.441ZM164.461 138.658C165.124 138.658 165.674 138.483 166.109 138.132C166.545 137.782 166.867 137.316 167.075 136.733C167.288 136.151 167.395 135.509 167.395 134.808C167.395 134.112 167.288 133.473 167.075 132.891C166.867 132.304 166.545 131.833 166.109 131.477C165.674 131.122 165.124 130.945 164.461 130.945C163.794 130.945 163.24 131.122 162.8 131.477C162.364 131.833 162.04 132.304 161.827 132.891C161.618 133.473 161.514 134.112 161.514 134.808C161.514 135.509 161.618 136.151 161.827 136.733C162.04 137.316 162.364 137.782 162.8 138.132C163.24 138.483 163.794 138.658 164.461 138.658ZM171.91 140.22V129.311H173.948V131.087H174.083C174.311 130.486 174.682 130.017 175.198 129.681C175.714 129.34 176.332 129.169 177.052 129.169C177.781 129.169 178.392 129.34 178.884 129.681C179.382 130.021 179.749 130.49 179.985 131.087H180.099C180.359 130.504 180.774 130.04 181.342 129.695C181.91 129.344 182.587 129.169 183.373 129.169C184.363 129.169 185.17 129.479 185.795 130.1C186.425 130.72 186.74 131.655 186.74 132.905V140.22H184.616V133.104C184.616 132.365 184.415 131.83 184.012 131.499C183.61 131.167 183.129 131.002 182.57 131.002C181.879 131.002 181.342 131.215 180.958 131.641C180.575 132.062 180.383 132.604 180.383 133.267V140.22H178.267V132.969C178.267 132.377 178.082 131.901 177.713 131.541C177.343 131.182 176.863 131.002 176.271 131.002C175.868 131.002 175.497 131.108 175.156 131.321C174.82 131.53 174.547 131.821 174.339 132.195C174.135 132.569 174.034 133.002 174.034 133.494V140.22H171.91ZM203.053 131.975L201.129 132.316C201.048 132.069 200.92 131.835 200.745 131.612C200.575 131.39 200.343 131.208 200.049 131.066C199.756 130.923 199.389 130.852 198.948 130.852C198.347 130.852 197.845 130.987 197.443 131.257C197.04 131.522 196.839 131.866 196.839 132.287C196.839 132.652 196.974 132.945 197.244 133.168C197.514 133.39 197.949 133.573 198.551 133.715L200.284 134.112C201.287 134.344 202.035 134.702 202.528 135.185C203.02 135.668 203.267 136.295 203.267 137.067C203.267 137.72 203.077 138.303 202.698 138.814C202.324 139.321 201.801 139.718 201.129 140.007C200.461 140.296 199.687 140.441 198.806 140.441C197.585 140.441 196.588 140.18 195.816 139.659C195.044 139.134 194.571 138.388 194.396 137.422L196.448 137.11C196.576 137.645 196.839 138.049 197.237 138.324C197.634 138.594 198.153 138.729 198.792 138.729C199.488 138.729 200.044 138.584 200.461 138.296C200.878 138.002 201.086 137.645 201.086 137.223C201.086 136.882 200.958 136.596 200.703 136.364C200.452 136.132 200.066 135.957 199.545 135.838L197.698 135.433C196.68 135.201 195.927 134.832 195.44 134.325C194.957 133.819 194.715 133.177 194.715 132.401C194.715 131.757 194.895 131.193 195.255 130.71C195.615 130.227 196.112 129.851 196.747 129.581C197.381 129.307 198.108 129.169 198.927 129.169C200.106 129.169 201.034 129.425 201.711 129.936C202.388 130.443 202.836 131.122 203.053 131.975ZM212.512 135.696V129.311H214.643V140.22H212.555V138.331H212.441C212.19 138.914 211.787 139.399 211.233 139.787C210.684 140.171 210 140.362 209.181 140.362C208.48 140.362 207.86 140.209 207.32 139.901C206.785 139.588 206.364 139.127 206.056 138.516C205.753 137.905 205.601 137.15 205.601 136.25V129.311H207.725V135.994C207.725 136.738 207.931 137.33 208.343 137.77C208.755 138.21 209.29 138.431 209.948 138.431C210.346 138.431 210.741 138.331 211.134 138.132C211.532 137.933 211.861 137.633 212.121 137.23C212.386 136.828 212.517 136.316 212.512 135.696ZM222.091 140.441C221.035 140.441 220.126 140.201 219.364 139.723C218.606 139.24 218.024 138.575 217.617 137.727C217.209 136.88 217.006 135.909 217.006 134.816C217.006 133.708 217.214 132.73 217.631 131.882C218.048 131.03 218.635 130.365 219.392 129.887C220.15 129.408 221.042 129.169 222.07 129.169C222.898 129.169 223.637 129.323 224.286 129.631C224.934 129.934 225.458 130.36 225.855 130.909C226.258 131.459 226.497 132.1 226.573 132.834H224.506C224.392 132.323 224.132 131.882 223.725 131.513C223.322 131.144 222.782 130.959 222.105 130.959C221.513 130.959 220.995 131.115 220.55 131.428C220.11 131.736 219.766 132.176 219.52 132.749C219.274 133.317 219.151 133.989 219.151 134.766C219.151 135.561 219.271 136.248 219.513 136.825C219.754 137.403 220.095 137.851 220.536 138.168C220.981 138.485 221.504 138.644 222.105 138.644C222.508 138.644 222.872 138.57 223.199 138.423C223.53 138.272 223.807 138.057 224.03 137.777C224.257 137.498 224.416 137.162 224.506 136.769H226.573C226.497 137.474 226.267 138.104 225.884 138.658C225.5 139.212 224.986 139.647 224.343 139.965C223.703 140.282 222.953 140.441 222.091 140.441ZM233.545 140.441C232.47 140.441 231.545 140.211 230.768 139.752C229.997 139.288 229.4 138.637 228.979 137.798C228.562 136.956 228.354 135.968 228.354 134.837C228.354 133.719 228.562 132.735 228.979 131.882C229.4 131.03 229.987 130.365 230.74 129.887C231.497 129.408 232.383 129.169 233.396 129.169C234.012 129.169 234.608 129.271 235.186 129.475C235.764 129.678 236.282 129.998 236.741 130.433C237.201 130.869 237.563 131.435 237.828 132.131C238.093 132.822 238.226 133.663 238.226 134.652V135.405H229.554V133.814H236.145C236.145 133.255 236.031 132.761 235.804 132.33C235.577 131.894 235.257 131.551 234.845 131.3C234.438 131.049 233.96 130.923 233.41 130.923C232.814 130.923 232.293 131.07 231.848 131.364C231.407 131.653 231.067 132.031 230.825 132.5C230.588 132.964 230.47 133.468 230.47 134.013V135.256C230.47 135.985 230.598 136.605 230.854 137.117C231.114 137.628 231.476 138.019 231.94 138.289C232.404 138.554 232.946 138.686 233.567 138.686C233.969 138.686 234.336 138.629 234.667 138.516C234.999 138.397 235.285 138.222 235.527 137.99C235.768 137.758 235.953 137.472 236.081 137.131L238.091 137.493C237.93 138.085 237.641 138.603 237.224 139.048C236.812 139.489 236.294 139.832 235.669 140.078C235.049 140.32 234.341 140.441 233.545 140.441ZM248.757 131.975L246.832 132.316C246.751 132.069 246.624 131.835 246.448 131.612C246.278 131.39 246.046 131.208 245.752 131.066C245.459 130.923 245.092 130.852 244.651 130.852C244.05 130.852 243.548 130.987 243.146 131.257C242.743 131.522 242.542 131.866 242.542 132.287C242.542 132.652 242.677 132.945 242.947 133.168C243.217 133.39 243.652 133.573 244.254 133.715L245.987 134.112C246.99 134.344 247.739 134.702 248.231 135.185C248.723 135.668 248.97 136.295 248.97 137.067C248.97 137.72 248.78 138.303 248.401 138.814C248.027 139.321 247.504 139.718 246.832 140.007C246.164 140.296 245.39 140.441 244.509 140.441C243.288 140.441 242.291 140.18 241.519 139.659C240.748 139.134 240.274 138.388 240.099 137.422L242.151 137.11C242.279 137.645 242.542 138.049 242.94 138.324C243.338 138.594 243.856 138.729 244.495 138.729C245.191 138.729 245.748 138.584 246.164 138.296C246.581 138.002 246.789 137.645 246.789 137.223C246.789 136.882 246.661 136.596 246.406 136.364C246.155 136.132 245.769 135.957 245.248 135.838L243.401 135.433C242.383 135.201 241.631 134.832 241.143 134.325C240.66 133.819 240.419 133.177 240.419 132.401C240.419 131.757 240.598 131.193 240.958 130.71C241.318 130.227 241.815 129.851 242.45 129.581C243.084 129.307 243.811 129.169 244.63 129.169C245.809 129.169 246.737 129.425 247.414 129.936C248.091 130.443 248.539 131.122 248.757 131.975ZM259.479 131.975L257.555 132.316C257.474 132.069 257.346 131.835 257.171 131.612C257.001 131.39 256.769 131.208 256.475 131.066C256.181 130.923 255.814 130.852 255.374 130.852C254.773 130.852 254.271 130.987 253.868 131.257C253.466 131.522 253.265 131.866 253.265 132.287C253.265 132.652 253.4 132.945 253.67 133.168C253.939 133.39 254.375 133.573 254.976 133.715L256.709 134.112C257.713 134.344 258.461 134.702 258.954 135.185C259.446 135.668 259.692 136.295 259.692 137.067C259.692 137.72 259.503 138.303 259.124 138.814C258.75 139.321 258.227 139.718 257.555 140.007C256.887 140.296 256.113 140.441 255.232 140.441C254.01 140.441 253.014 140.18 252.242 139.659C251.47 139.134 250.997 138.388 250.822 137.422L252.874 137.11C253.002 137.645 253.265 138.049 253.662 138.324C254.06 138.594 254.579 138.729 255.218 138.729C255.914 138.729 256.47 138.584 256.887 138.296C257.304 138.002 257.512 137.645 257.512 137.223C257.512 136.882 257.384 136.596 257.128 136.364C256.877 136.132 256.492 135.957 255.971 135.838L254.124 135.433C253.106 135.201 252.353 134.832 251.866 134.325C251.383 133.819 251.141 133.177 251.141 132.401C251.141 131.757 251.321 131.193 251.681 130.71C252.041 130.227 252.538 129.851 253.172 129.581C253.807 129.307 254.534 129.169 255.353 129.169C256.532 129.169 257.46 129.425 258.137 129.936C258.814 130.443 259.261 131.122 259.479 131.975ZM266.622 140.441C265.6 140.441 264.707 140.206 263.945 139.737C263.182 139.269 262.591 138.613 262.169 137.77C261.748 136.927 261.537 135.942 261.537 134.816C261.537 133.684 261.748 132.694 262.169 131.847C262.591 130.999 263.182 130.341 263.945 129.872C264.707 129.404 265.6 129.169 266.622 129.169C267.645 129.169 268.538 129.404 269.3 129.872C270.062 130.341 270.654 130.999 271.075 131.847C271.497 132.694 271.708 133.684 271.708 134.816C271.708 135.942 271.497 136.927 271.075 137.77C270.654 138.613 270.062 139.269 269.3 139.737C268.538 140.206 267.645 140.441 266.622 140.441ZM266.629 138.658C267.292 138.658 267.842 138.483 268.277 138.132C268.713 137.782 269.035 137.316 269.243 136.733C269.456 136.151 269.563 135.509 269.563 134.808C269.563 134.112 269.456 133.473 269.243 132.891C269.035 132.304 268.713 131.833 268.277 131.477C267.842 131.122 267.292 130.945 266.629 130.945C265.962 130.945 265.408 131.122 264.968 131.477C264.532 131.833 264.208 132.304 263.994 132.891C263.786 133.473 263.682 134.112 263.682 134.808C263.682 135.509 263.786 136.151 263.994 136.733C264.208 137.316 264.532 137.782 264.968 138.132C265.408 138.483 265.962 138.658 266.629 138.658ZM276.756 125.675L276.571 136.037H274.604L274.419 125.675H276.756ZM275.591 140.355C275.198 140.355 274.862 140.218 274.582 139.943C274.303 139.664 274.166 139.328 274.17 138.935C274.166 138.547 274.303 138.215 274.582 137.941C274.862 137.661 275.198 137.521 275.591 137.521C275.974 137.521 276.306 137.661 276.585 137.941C276.864 138.215 277.006 138.547 277.011 138.935C277.006 139.195 276.938 139.434 276.805 139.652C276.677 139.865 276.507 140.036 276.294 140.164C276.081 140.291 275.846 140.355 275.591 140.355Z" fill="#574327"/>
<defs>
<filter id="filter0_d_89_5470" x="8.49209" y="17.5231" width="312.225" height="180.253" filterUnits="userSpaceOnUse" color-interpolation-filters="sRGB">
<feFlood flood-opacity="0" result="BackgroundImageFix"/>
<feColorMatrix in="SourceAlpha" type="matrix" values="0 0 0 0 0 0 0 0 0 0 0 0 0 0 0 0 0 0 127 0" result="hardAlpha"/>
<feOffset dx="-2" dy="3"/>
<feGaussianBlur stdDeviation="0.2"/>
<feComposite in2="hardAlpha" operator="out"/>
<feColorMatrix type="matrix" values="0 0 0 0 0.70829 0 0 0 0 0.386116 0 0 0 0 0.0639429 0 0 0 1 0"/>
<feBlend mode="normal" in2="BackgroundImageFix" result="effect1_dropShadow_89_5470"/>
<feBlend mode="normal" in="SourceGraphic" in2="effect1_dropShadow_89_5470" result="shape"/>
</filter>
</defs>
</svg>
