<svg width="24" height="22" viewBox="0 0 24 22" fill="none" xmlns="http://www.w3.org/2000/svg">
<path d="M10.5734 2.00861C11.0224 0.626642 12.9776 0.626642 13.4266 2.00861L14.6677 5.82827C15.0024 6.85833 15.9622 7.55573 17.0453 7.55573H21.0615C22.5146 7.55573 23.1188 9.41515 21.9432 10.2693L18.694 12.6299C17.8178 13.2665 17.4512 14.395 17.7858 15.425L19.0269 19.2447C19.476 20.6266 17.8942 21.7758 16.7187 20.9217L13.4695 18.561C12.5932 17.9244 11.4068 17.9244 10.5305 18.561L7.28134 20.9217C6.10577 21.7758 4.52405 20.6266 4.97308 19.2447L6.21416 15.425C6.54885 14.395 6.1822 13.2665 5.30598 12.6299L2.05678 10.2693C0.881213 9.41515 1.48538 7.55573 2.93846 7.55573H6.95469C8.03776 7.55573 8.99765 6.85833 9.33233 5.82827L10.5734 2.00861Z" fill="#F9AF03" stroke="white"/>
</svg>
