<svg width="184" height="193" viewBox="0 0 184 193" fill="none" xmlns="http://www.w3.org/2000/svg">
<g filter="url(#filter0_d_89_5472)">
<path d="M69.3232 44.9571C58.3915 47.9172 44.2954 60.547 36.6231 75.737C31.1528 86.5677 29.0203 98.8104 34.4631 110.026L63.3149 58.5404L69.3232 44.9571Z" fill="#574327"/>
<path d="M90.1951 112.631C93.1973 123.591 89.7995 141.844 81.0911 155.669C74.8818 165.526 65.8457 173.12 53.8844 173.598L81.9832 124.247L90.1951 112.631Z" fill="#574327"/>
<path d="M78.794 110.734C81.7962 121.694 78.3984 139.947 69.69 153.772C63.4807 163.629 54.4446 171.223 42.4833 171.701L70.5821 122.35L78.794 110.734Z" fill="#574327"/>
<path d="M66.5364 109.334C69.5386 120.293 66.1408 138.547 57.4324 152.371C51.2232 162.228 42.187 169.822 30.2257 170.301L58.3245 120.95L66.5364 109.334Z" fill="#574327"/>
<path d="M60.0728 102.14C63.075 113.099 59.6772 131.353 50.9688 145.177C44.7595 155.034 35.7234 162.628 23.7621 163.107L51.8609 113.756L60.0728 102.14Z" fill="#574327"/>
<path d="M55.1216 91.6353C58.1238 102.595 54.726 120.848 46.0176 134.673C39.8084 144.53 30.7722 152.123 18.8109 152.602L46.9097 103.251L55.1216 91.6353Z" fill="#574327"/>
<path d="M92.3123 109.519C95.3145 120.478 91.9167 138.732 83.2083 152.556C76.999 162.413 67.9629 170.007 56.0016 170.486L84.1004 121.134L92.3123 109.519Z" fill="#513B1C"/>
<path d="M80.9112 107.622C83.9134 118.581 80.5156 136.835 71.8072 150.659C65.5979 160.516 56.5618 168.11 44.6005 168.589L72.6993 119.237L80.9112 107.622Z" fill="#513B1C"/>
<path d="M68.6538 106.221C71.6561 117.181 68.2583 135.434 59.5498 149.259C53.3406 159.116 44.3044 166.71 32.3431 167.188L60.442 117.837L68.6538 106.221Z" fill="#513B1C"/>
<path d="M62.1897 99.027C65.192 109.986 61.7941 128.24 53.0857 142.064C46.8765 151.921 37.8403 159.515 25.879 159.994L53.9779 110.643L62.1897 99.027Z" fill="#513B1C"/>
<path d="M57.239 88.5227C60.2413 99.4819 56.8435 117.735 48.135 131.56C41.9258 141.417 32.8896 149.011 20.9283 149.489L49.0272 100.138L57.239 88.5227Z" fill="#513B1C"/>
<path d="M90.8995 118.677C88.5438 129.755 93.3476 148.062 103.361 161.821C110.501 171.632 120.421 179.117 132.884 179.394L100.243 130.223L90.8995 118.677Z" fill="#574327"/>
<path d="M102.615 116.573C100.26 127.651 105.063 145.958 115.077 159.717C122.217 169.528 132.137 177.013 144.6 177.29L111.959 128.119L102.615 116.573Z" fill="#574327"/>
<path d="M115.256 114.954C112.9 126.032 117.704 144.338 127.717 158.098C134.857 167.909 144.777 175.394 157.241 175.67L124.599 126.5L115.256 114.954Z" fill="#574327"/>
<path d="M121.471 107.605C119.115 118.682 123.919 136.989 133.933 150.749C141.073 160.559 150.992 168.045 163.456 168.321L130.815 119.15L121.471 107.605Z" fill="#574327"/>
<path d="M125.883 96.9513C123.528 108.029 128.331 126.336 138.345 140.095C145.485 149.906 155.405 157.391 167.868 157.668L135.227 108.497L125.883 96.9513Z" fill="#574327"/>
<path d="M88.8414 115.526C86.4857 126.604 91.2894 144.911 101.303 158.67C108.443 168.481 118.363 175.966 130.826 176.242L98.1851 127.072L88.8414 115.526Z" fill="#513B1C"/>
<path d="M100.558 113.422C98.2018 124.5 103.006 142.807 113.019 156.566C120.159 166.377 130.079 173.862 142.542 174.138L109.901 124.968L100.558 113.422Z" fill="#513B1C"/>
<path d="M113.198 111.803C110.842 122.881 115.646 141.187 125.66 154.947C132.799 164.758 142.719 172.243 155.183 172.519L122.542 123.349L113.198 111.803Z" fill="#513B1C"/>
<path d="M119.413 104.453C117.057 115.531 121.861 133.838 131.875 147.597C139.015 157.408 148.934 164.893 161.398 165.17L128.757 115.999L119.413 104.453Z" fill="#513B1C"/>
<path d="M123.825 93.7999C121.47 104.878 126.273 123.184 136.287 136.944C143.427 146.755 153.347 154.24 165.81 154.516L133.169 105.346L123.825 93.7999Z" fill="#513B1C"/>
<path d="M128.377 51.1768C148.948 60.322 170.941 102.979 151.274 125.568L136.888 68.3297L128.377 51.1768Z" fill="#574327"/>
<path d="M41.3564 105.567C41.3564 105.567 42.0604 90.714 33.9964 91.8201C31.0594 92.2228 28.4725 97.3849 28.0488 102.927C27.6094 108.676 28.3586 118.582 36.3546 120.494L41.3564 105.567Z" fill="#A6722A"/>
<path d="M145.812 119.465C145.812 119.465 149.016 104.945 156.51 108.121C159.24 109.278 160.387 114.936 159.347 120.397C158.268 126.06 154.954 135.425 146.736 135.181L145.812 119.465Z" fill="#A6722A"/>
<path d="M150.416 138.814C147.673 155.784 131.913 171.44 89.1131 165.745C46.3138 160.05 30.4599 140.188 32.2522 123.092C32.5133 120.601 33.0423 118.209 33.8158 115.943C33.8994 115.691 33.9901 115.44 34.0809 115.189L34.0769 115.192L51.1998 72.3464C51.1998 72.3464 63.6539 43.8734 102.243 49.0079C139.826 54.0084 145.278 83.8573 145.278 83.8573L150.701 130.592L150.721 130.763C150.946 133.382 150.857 136.085 150.416 138.814Z" fill="#B58138"/>
<path d="M47.7582 94.3862C48.4909 93.6441 51.1846 91.2181 51.4159 90.1735C51.7207 88.7972 52.2117 84.1915 53.3239 83.0579C55.9521 80.3789 67.6971 68.9497 82.8437 68.2948C95.9055 68.8578 109.268 67.9658 128.58 78.5456C134.416 81.2444 143.261 90.2182 142.154 97.3873C141.784 99.7795 139.573 102.396 140.112 104.899C140.716 107.7 144.665 108.561 149.695 121.912L145.279 83.8569C145.279 83.8569 139.826 54.008 102.243 49.0075C63.6539 43.873 51.1998 72.346 51.1998 72.346L34.8922 113.151C34.9243 113.143 38.9945 103.26 47.7582 94.3862Z" fill="#9B661B"/>
<path d="M87.5225 159.575C53.9525 155.109 34.0029 139.237 32.2525 123.093C30.4605 140.187 46.3141 160.05 89.1134 165.745C131.913 171.439 147.672 155.782 150.415 138.815C146.099 152.256 130.442 165.286 87.5225 159.575Z" fill="#A6722A"/>
<path d="M46.8096 122.938C40.6249 122.438 36.351 124.762 35.7393 127.593C35.2541 129.84 36.4777 136.465 45.3026 137.33C55.4542 138.324 60.6126 124.052 46.8096 122.938Z" fill="#B56038"/>
<path d="M43.544 127.423C43.2864 127.553 42.9667 127.48 42.7812 127.232C42.5672 126.945 42.6125 126.532 42.8824 126.31C44.3562 125.095 46.1828 124.031 46.2598 123.986C46.5583 123.811 46.9418 123.928 47.1101 124.248C47.2784 124.567 47.1706 124.967 46.8691 125.142C46.8511 125.153 45.0511 126.2 43.6572 127.348C43.6217 127.378 43.5836 127.403 43.544 127.423Z" fill="#8A2622"/>
<path d="M46.9874 128.297C46.7232 128.43 46.3964 128.35 46.2145 128.091C46.0085 127.799 46.0655 127.388 46.3415 127.173C47.7341 126.093 49.2652 125.203 49.3294 125.166C49.6237 124.986 50.0111 125.108 50.1794 125.427C50.347 125.746 50.2385 126.146 49.9374 126.32C49.9224 126.329 48.4123 127.207 47.0874 128.234C47.0556 128.258 47.0221 128.279 46.9874 128.297Z" fill="#8A2622"/>
<path d="M138.513 135.111C132.34 134.395 127.876 136.553 127.053 139.344C126.399 141.559 127.137 148.186 135.934 149.356C146.05 150.702 152.285 136.708 138.513 135.111Z" fill="#B56038"/>
<path d="M133.208 139.225C132.94 139.346 132.624 139.262 132.456 139.009C132.262 138.717 132.338 138.308 132.626 138.096C134.194 136.941 136.106 135.949 136.186 135.908C136.499 135.744 136.875 135.874 137.021 136.198C137.166 136.521 137.028 136.914 136.713 137.078C136.695 137.087 134.811 138.064 133.327 139.156C133.289 139.183 133.249 139.207 133.208 139.225Z" fill="#8A2622"/>
<path d="M136.601 140.215C136.326 140.338 136.004 140.248 135.84 139.984C135.655 139.686 135.742 139.28 136.035 139.077C137.512 138.052 139.114 137.223 139.182 137.188C139.49 137.02 139.87 137.155 140.016 137.478C140.161 137.801 140.023 138.194 139.707 138.357C139.692 138.365 138.111 139.183 136.706 140.157C136.672 140.179 136.637 140.199 136.601 140.215Z" fill="#8A2622"/>
<path d="M80.667 90.3147C73.5477 84.1301 59.1243 83.5681 59.7474 86.1043C59.9576 86.9602 67.1707 86.848 74.4467 91.8411C76.6543 93.3562 79.331 95.772 81.9064 98.4165C83.3245 99.8725 84.2221 93.4032 80.667 90.3147Z" fill="#9B661B"/>
<path d="M80.4312 90.0248C73.3717 83.7687 60.8321 84.4248 60.8619 85.3127C60.8921 86.2002 67.5309 85.7257 74.8107 90.7215C77.0193 92.2372 79.29 94.2959 81.867 96.942C83.2858 98.3991 83.0327 92.33 80.4312 90.0248Z" fill="#5B451F"/>
<path d="M113.21 95.3398C121.705 91.2465 135.769 94.5003 134.5 96.7832C134.072 97.554 127.142 95.5472 118.809 98.4498C116.281 99.3303 113.062 100.956 109.882 102.83C108.131 103.861 108.967 97.3836 113.21 95.3398Z" fill="#9B661B"/>
<path d="M113.513 95.1217C121.971 90.9439 133.896 94.8767 133.633 95.7256C133.37 96.5739 127.09 94.369 118.753 97.2728C116.223 98.1537 113.491 99.5422 110.308 101.417C108.555 102.45 110.397 96.6612 113.513 95.1217Z" fill="#5B451F"/>
<path d="M58.4006 129.453C51.7979 127.112 52.5974 117.885 55.8109 109.689C58.8232 102.005 64.1806 94.8787 71.2248 95.0402C79.1414 95.2219 82.2026 104.509 81.0026 114.474C79.8135 124.346 73.5931 134.84 58.4006 129.453Z" fill="#9B661B"/>
<path d="M59.6593 127.718C53.6113 125.572 54.3507 117.117 57.2987 109.611C60.0606 102.579 64.9661 96.0602 71.4108 96.2083C78.6533 96.3749 81.4568 104.87 80.3612 113.991C79.2751 123.036 73.5779 132.657 59.6593 127.718Z" fill="#FDFDFD"/>
<path d="M69.749 115.374C72.4953 117.737 75.0657 120.571 76.8552 123.828C78.8408 121.039 79.9434 117.473 80.3616 113.991C81.4572 104.87 78.6537 96.3746 71.4113 96.2083C65.4133 96.0703 60.748 101.709 57.9038 108.162C62.1794 109.796 66.2146 112.334 69.749 115.374Z" fill="#C5C5BE"/>
<path d="M65.3185 126.671C61.65 125.346 62.3207 119.455 64.3222 114.174C66.1935 109.236 69.3619 104.604 73.3077 104.531C77.7413 104.448 79.2633 110.233 78.38 116.573C77.5016 122.875 73.768 129.723 65.3185 126.671Z" fill="#7A4D29"/>
<path d="M70.9672 105.231C67.2229 104.76 62.4603 109.009 67.1859 111.472C71.9029 113.93 76.1377 105.883 70.9672 105.231Z" fill="#FDFDFD"/>
<path d="M56.9664 110.458C55.6575 109.879 58.692 103.975 60.942 101.103C63.4481 97.905 66.971 94.9169 71.4329 95.0197C74.6 95.0924 77.2718 96.8505 78.9345 99.6982C80.2384 101.931 80.7396 105.74 80.2465 105.832C79.7541 105.925 78.9934 98.4611 71.155 98.1138C62.5044 97.7301 57.0489 110.493 56.9664 110.458Z" fill="#563117"/>
<path d="M124.93 138.024C131.824 137.51 133.562 128.553 132.734 119.951C131.957 111.888 128.807 103.747 122.086 102.08C114.532 100.207 109.117 108.221 107.556 117.978C106.01 127.648 109.066 139.207 124.93 138.024Z" fill="#9B661B"/>
<path d="M124.305 136.358C130.72 135.878 132.333 127.539 131.558 119.535C130.832 112.036 127.9 104.469 121.652 102.92C114.631 101.179 109.594 108.626 108.141 117.7C106.7 126.698 109.541 137.461 124.305 136.358Z" fill="#FDFDFD"/>
<path d="M117.983 121.818C114.688 123.373 111.433 125.428 108.813 128.096C107.668 124.889 107.586 121.164 108.141 117.7C109.594 108.626 114.631 101.179 121.652 102.92C127.467 104.362 130.409 111.018 131.374 117.98C126.807 118.433 122.222 119.817 117.983 121.818Z" fill="#C5C5BE"/>
<path d="M131.572 120.384C132.991 120.169 131.679 113.685 130.294 110.33C128.752 106.593 126.172 102.793 121.845 101.727C118.773 100.969 115.718 101.966 113.338 104.275C111.472 106.087 109.95 109.626 110.399 109.844C110.849 110.061 113.619 103.068 121.268 104.781C129.709 106.672 131.482 120.397 131.572 120.384Z" fill="#563117"/>
<path d="M119.143 133.863C123.04 133.55 124.014 127.699 123.539 122.086C123.095 116.839 121.317 111.545 117.537 110.439C113.289 109.194 110.233 114.368 109.34 120.707C108.453 127.008 110.165 134.584 119.143 133.863Z" fill="#7A4D29"/>
<path d="M115.431 111.347C111.625 111.31 106.732 116.027 111.513 117.911C116.289 119.793 120.69 111.399 115.431 111.347Z" fill="#FDFDFD"/>
<path d="M88.9426 128.759C89.0651 127.83 90.0778 125.242 91.737 125.886C93.3959 126.531 94.4164 128.924 93.5331 129.51C92.6508 130.097 88.8513 129.451 88.9426 128.759Z" fill="#7F5F27"/>
<path d="M79.7891 135.846C80.7433 134.519 101.955 136.777 102.43 138.161C102.87 139.447 95.0003 151.991 89.6316 151.332C84.2977 150.678 78.9106 137.068 79.7891 135.846Z" fill="#FD5F54"/>
<path d="M79.7889 135.846C80.743 134.519 101.955 136.777 102.429 138.161C102.582 138.607 101.264 141.216 99.4508 143.908C96.0772 134.984 84.1564 135.535 81.4607 141.981C80.2281 139.032 79.4832 136.271 79.7889 135.846Z" fill="#902422"/>
<path d="M154 108.728C151.314 108.297 146.913 98.1957 144.215 97.5005C145.404 94.0245 141.809 85.2724 136.522 80.0777C135.595 79.1654 134.617 78.3632 133.603 77.7183C123.879 71.9073 111.135 67.9303 100.123 66.297C94.5083 65.4675 82.9195 65.0618 78.8344 65.5181C73.4902 59.7259 76.4156 50.1127 85.6941 44.6798C96.5529 33.8976 125.724 43.6318 140.678 61.2805C156.205 79.6065 154 108.728 154 108.728Z" fill="#795E30"/>
<path d="M99.8856 40.5503C99.8856 40.5503 76.2372 35.4904 57.2942 52.6956C38.681 69.6012 40.8352 97.9043 40.8352 97.9043C40.8352 97.9043 54.2501 65.6651 85.4336 65.3537C94.5234 54.3622 99.8856 40.5503 99.8856 40.5503Z" fill="#795E30"/>
<path d="M45.984 70.3971C45.984 70.3971 31.783 90.5352 34.6405 113.097C34.6405 113.097 39.7563 99.3406 47.9605 90.2266C48.8528 89.2355 47.0896 80.9464 57.9878 74.493C57.3016 71.6248 45.984 70.3971 45.984 70.3971Z" fill="#795E30"/>
<path d="M42.645 76.0065C37.7483 83.1926 31.6981 97.6251 34.6409 113.097C34.6409 113.097 36.6064 107.813 40.0539 101.625C38.319 93.2409 40.0121 84.3435 42.645 76.0065Z" fill="#574327"/>
<path d="M63.2649 64.7996C64.6096 63.7066 44.8718 72.4632 39.7091 102.249C41.8754 98.2862 44.6691 93.8831 47.9605 90.2265C48.4101 89.7268 48.1858 87.3721 49.2487 84.333C53.9018 73.0951 57.9957 69.0829 63.2649 64.7996Z" fill="#574327"/>
<path d="M150.636 90.0007C150.636 90.0007 158.967 107.458 150.31 128.487C150.31 128.487 148.986 114.05 143.535 103.131C143.204 102.467 144.97 95.0375 141.932 87.3706C143.693 84.4284 150.636 90.0007 150.636 90.0007Z" fill="#795E30"/>
<path d="M151.145 91.2145C151.532 98.8203 150.399 106.689 147.492 113.746C149.678 121.603 150.31 128.487 150.31 128.487C157.621 110.727 152.816 95.5152 151.145 91.2145Z" fill="#574327"/>
<path d="M143.607 102.867C156.744 87.348 135.89 66.4167 130.758 63.2417C129.958 63.5402 136.3 65.4742 139.586 83.3206C146.774 92.7144 142.781 103.192 143.607 102.867Z" fill="#574327"/>
<path d="M101.592 41.4002C102.89 41.2189 112.105 42.5673 114.574 44.0551C117.043 45.5432 113.458 48.0811 107.579 46.9509C101.699 45.821 97.3381 41.9939 101.592 41.4002Z" fill="#A3874B"/>
<path d="M80.8384 41.382C74.5572 41.9169 66.2442 44.5665 57.294 52.6956C48.3551 60.8147 43.4909 70.0011 41.1246 81.3635C47.5928 62.129 60.1447 47.5807 80.8384 41.382Z" fill="#A3874B"/>
<path d="M123.847 65.9535C115.565 62.4978 100.3 58.5315 91.9311 59.6167C85.9467 59.8811 80.2254 61.4184 76.3798 62.5571C64.333 66.1249 58.7735 74.8654 58.7735 74.8654C65.5561 69.5879 74.3775 65.4637 85.4333 65.3536C108.092 65.5659 123.878 71.9073 133.603 77.7184C134.617 78.363 138.315 80.8373 141.259 85.9996C143.909 78.1283 131.735 69.2443 123.847 65.9535Z" fill="#574327"/>
<path d="M76.7891 131.99C80.3746 130.158 84.7695 135.539 92.5362 136.631C100.352 137.73 106.525 133.383 108.969 136.465C111.019 139.536 113.098 157.535 90.1327 154.081C67.1671 150.626 73.4669 133.51 76.7891 131.99Z" fill="#902422"/>
<path d="M77.7744 133.146C81.0678 131.657 85.2173 136.251 92.4262 137.285C99.6805 138.326 105.333 134.758 107.642 137.388C109.586 140.004 111.777 155.186 90.4576 151.939C69.1388 148.691 74.7201 134.377 77.7744 133.146Z" fill="#FDFDFD"/>
<path d="M90.9037 145.808C88.5416 145.454 86.6573 144.886 85.6734 144.55C81.896 143.261 79.0592 141.393 78.446 139.791C78.3335 139.497 78.4807 139.167 78.7744 139.055C79.0683 138.942 79.3976 139.09 79.5099 139.383C79.9041 140.413 82.1158 142.132 86.0412 143.471C88.5904 144.342 97.4569 146.847 104.515 142.545C104.783 142.381 105.134 142.466 105.297 142.735C105.461 143.003 105.376 143.354 105.108 143.517C100.387 146.396 94.9457 146.415 90.9037 145.808Z" fill="#C5C5BE"/>
<path d="M82.2283 148.39C81.975 148.352 81.7705 148.145 81.7462 147.879C81.3576 143.631 82.5328 138.687 83.0564 136.759C83.1389 136.455 83.451 136.277 83.7552 136.358C84.0589 136.44 84.2382 136.753 84.1558 137.057C83.6488 138.926 82.5091 143.711 82.8807 147.775C82.9095 148.088 82.6786 148.365 82.3655 148.394C82.3185 148.399 82.2727 148.397 82.2283 148.39Z" fill="#C5C5BE"/>
<path d="M90.9422 150.778C90.631 150.731 90.4166 150.441 90.4634 150.13C90.618 149.1 91.5024 140.36 91.5113 140.272C91.5427 139.959 91.8222 139.731 92.1353 139.762C92.4472 139.792 92.6763 140.073 92.6446 140.386C92.6081 140.748 91.7485 149.242 91.5898 150.299C91.5434 150.61 91.2531 150.824 90.9422 150.778Z" fill="#C5C5BE"/>
<path d="M100.432 150.15C100.411 150.147 100.39 150.142 100.37 150.137C100.065 150.056 99.8844 149.744 99.9654 149.44C100.446 147.632 100.746 139.974 100.715 139.491C100.694 139.181 100.927 138.905 101.237 138.88C101.548 138.854 101.819 139.078 101.849 139.387C101.896 139.88 101.578 147.804 101.067 149.732C100.991 150.016 100.715 150.192 100.432 150.15Z" fill="#C5C5BE"/>
<path d="M77.9679 134.324C81.2613 132.835 85.8302 137.927 93.0391 138.961C99.7531 139.925 104.071 135.973 107.642 137.388C105.333 134.758 99.6804 138.326 92.426 137.285C85.2172 136.251 81.0677 131.657 77.7743 133.146C75.7718 133.953 72.6832 140.384 76.8024 145.633C74.0229 141.184 76.2595 135.013 77.9679 134.324Z" fill="#C5C5BE"/>
<path d="M160.678 41.1881C151.234 35.2052 140.819 19.4098 113.836 11.6533C112.037 11.136 102.814 9.90377 100.964 9.93017C72.8415 10.3324 56.2908 23.0271 48.5959 26.2755C31.2705 33.5893 24.56 36.7484 25.0661 45.7871C26.0181 62.7841 47.909 73.1776 47.909 73.1776C67.953 61.8133 83.3995 60.3366 92.2492 60.8576C96.8135 61.126 105.005 62.1262 110.281 63.3854C119.075 65.4847 132.925 71.197 148.438 86.5534C148.438 86.5534 175.275 83.9248 180.638 67.7682C183.491 59.1759 176.044 50.9227 160.678 41.1881Z" fill="#E16BFF"/>
<path d="M55.0615 29.0583C67.3315 25.137 71.9474 19.3431 92.6827 14.4121C106.305 11.1725 117.093 14.41 126.229 16.2155C122.525 14.5215 118.42 12.9714 113.836 11.6537C112.037 11.1365 102.814 9.90421 100.964 9.93061C72.8417 10.3329 56.291 23.0275 48.5961 26.2759C42.9408 28.6633 38.4236 30.607 34.9123 32.458C44.6794 30.0265 48.0555 31.297 55.0615 29.0583Z" fill="#E79FFF"/>
<path d="M114.523 34.0861C98.9903 30.4174 72.935 38.8281 53.8292 51.964C42.8962 59.4808 29.6259 38.8109 26.9503 46.0378C27.8257 63.0249 49.1634 73.3445 49.1634 73.3445C68.7665 61.9216 83.8505 60.3968 92.4883 60.889C96.9432 61.143 104.937 62.1165 110.083 63.3589C118.661 65.4294 132.165 71.0954 147.26 86.3964C147.26 86.3964 173.466 83.6842 178.753 67.5171C180.49 62.2051 176.545 57.0129 171.154 51.5536C170.589 58.2071 158.167 69.6911 143.935 61.0687C134.011 55.0565 130.561 37.8744 114.523 34.0861Z" fill="#A13DBF"/>
<path d="M52.5333 66.52C53.5085 74.0312 75.6738 96.1606 95.5607 97.9493C119.68 100.119 140.737 86.3189 143.834 77.8858L97.73 62.2538L52.5333 66.52Z" fill="#4A4238"/>
<path d="M140.025 76.5942C135.34 85.0627 115.24 97.3395 92.3907 95.2846C82.8074 94.4228 72.6955 88.8365 64.6802 82.4396C73.0843 89.8823 84.6642 96.9692 95.5607 97.9493C119.68 100.119 140.737 86.3189 143.834 77.8858L140.025 76.5942Z" fill="#332C24"/>
<path d="M52.5333 66.5199C52.8482 68.9459 55.3739 72.8967 59.3189 77.1945C78.873 68.4323 119.678 79.6289 130.119 90.5752C137.419 86.5532 142.441 81.6768 143.834 77.8853L97.73 62.2534L52.5333 66.5199Z" fill="#332C24"/>
<path d="M54.6225 74.0546C65.5263 72.0898 80.8001 70.3231 100.31 72.5663C119.166 74.7343 133.274 82.6362 143.617 87.0542C147.72 88.8068 162.972 87.9041 160.876 84.1954C146.689 76.4941 137.254 47.8446 101.586 42.6174C71.2343 38.169 54.7766 61.7017 37.4189 67.1333C34.0534 70.1058 44.3421 75.9071 54.6225 74.0546Z" fill="#4A4238"/>
<path d="M73.3502 48.9359C96.2762 39.3121 117.396 47.5641 127.841 52.7232C120.952 48.01 112.498 44.2167 101.586 42.6173C74.6203 38.6655 58.6219 56.7985 43.2153 64.7025C50.7522 63.5872 67.6617 51.3236 73.3502 48.9359Z" fill="#6E6861"/>
<path d="M54.6227 74.0547C65.5265 72.0899 80.8003 70.3232 100.31 72.5664C119.166 74.7344 133.274 82.6363 143.617 87.0543C147.72 88.8069 162.972 87.9042 160.876 84.1955C146.123 78.3414 135.591 67.1685 99.9226 61.941C69.571 57.4926 50.6848 65.9632 37.4188 67.1331C34.0536 70.1059 44.3423 75.9072 54.6227 74.0547Z" fill="#3D362E"/>
<path d="M54.6225 74.0547C65.5264 72.09 80.8002 70.3233 100.31 72.5665C119.166 74.7345 133.274 82.6364 143.617 87.0544C147.72 88.807 162.972 87.9043 160.876 84.1956C147.146 85.0992 126.564 76.102 99.867 72.258C82.8962 69.8148 45.3342 71.1256 37.4187 67.1331C34.0535 70.106 44.3421 75.9073 54.6225 74.0547Z" fill="#332C24"/>
<path d="M111.995 57.2325C112.743 51.6121 108.243 46.3766 101.944 45.5386C95.6457 44.7006 89.9334 48.5776 89.1857 54.198C88.4379 59.8184 92.9379 65.0539 99.2365 65.8919C105.535 66.7299 111.247 62.8529 111.995 57.2325Z" fill="#332C24"/>
<path d="M109.408 55.8244C110.033 51.1294 106.263 46.7545 100.989 46.0527C95.7139 45.351 90.9316 48.5882 90.307 53.2831C89.6824 57.9781 93.452 62.353 98.7267 63.0548C104.001 63.7565 108.784 60.5193 109.408 55.8244Z" fill="#FFDF2C"/>
<path d="M101.683 50.3207C101.442 52.1263 99.6034 53.3714 97.5746 53.1013C95.5459 52.8314 94.0963 51.1487 94.3367 49.3431C94.577 47.5375 96.4161 46.2923 98.4448 46.5625C100.473 46.8323 101.923 48.5151 101.683 50.3207Z" fill="#FFF4A3"/>
<path d="M90.3567 54.3674C91.0135 49.4319 96.0409 46.029 101.586 46.7666C103.712 47.0497 105.605 47.9022 107.095 49.1224C105.582 47.5249 103.44 46.3889 100.968 46.0598C95.6935 45.358 90.9114 48.5949 90.2868 53.2896C90.1956 53.9744 90.2007 54.652 90.2875 55.3128C90.2924 55 90.3146 54.6844 90.3567 54.3674Z" fill="#FFF4A3"/>
<path d="M107.468 49.544C107.736 50.5261 107.819 51.5616 107.679 52.6139C107.054 57.3087 102.272 60.5455 96.9977 59.8438C94.3138 59.4866 92.0214 58.1773 90.4977 56.3601C91.4285 59.761 94.6132 62.5169 98.7056 63.0615C103.98 63.7633 108.762 60.5264 109.387 55.8316C109.694 53.5256 108.939 51.2981 107.468 49.544Z" fill="#E5A60B"/>
</g>
<defs>
<filter id="filter0_d_89_5472" x="18.811" y="0.529749" width="181.826" height="188.264" filterUnits="userSpaceOnUse" color-interpolation-filters="sRGB">
<feFlood flood-opacity="0" result="BackgroundImageFix"/>
<feColorMatrix in="SourceAlpha" type="matrix" values="0 0 0 0 0 0 0 0 0 0 0 0 0 0 0 0 0 0 127 0" result="hardAlpha"/>
<feOffset dx="10"/>
<feGaussianBlur stdDeviation="4.7"/>
<feComposite in2="hardAlpha" operator="out"/>
<feColorMatrix type="matrix" values="0 0 0 0 0 0 0 0 0 0 0 0 0 0 0 0 0 0 0.25 0"/>
<feBlend mode="normal" in2="BackgroundImageFix" result="effect1_dropShadow_89_5472"/>
<feBlend mode="normal" in="SourceGraphic" in2="effect1_dropShadow_89_5472" result="shape"/>
</filter>
</defs>
</svg>
