<svg width="36" height="36" viewBox="0 0 36 36" fill="none" xmlns="http://www.w3.org/2000/svg">
<path d="M15.6179 3.12519C16.3575 0.803591 19.6425 0.803591 20.3821 3.12519L22.4708 9.68239C22.9333 11.1342 24.282 12.1201 25.8057 12.1201H32.6896C35.0994 12.1201 36.1142 15.1938 34.1781 16.6286L28.5074 20.8311C27.3049 21.7222 26.8021 23.2793 27.2564 24.7054L29.3982 31.429C30.1347 33.741 27.4771 35.6411 25.5276 34.1963L20.0839 30.1621C18.8461 29.2448 17.1539 29.2448 15.9161 30.1621L10.4724 34.1963C8.52286 35.6411 5.86532 33.741 6.60181 31.4289L8.7436 24.7054C9.19787 23.2793 8.69509 21.7222 7.49261 20.8311L1.8219 16.6286C-0.114209 15.1938 0.900594 12.1201 3.3104 12.1201H10.1943C11.718 12.1201 13.0667 11.1342 13.5291 9.68239L15.6179 3.12519Z" fill="#F9AF03" stroke="white"/>
</svg>
